<svg width="20" height="20" viewBox="0 0 20 20" fill="none" xmlns="http://www.w3.org/2000/svg">
<path d="M18.8358 14.6198L15.7609 12.8445C15.1402 12.4861 14.3613 12.9346 14.3613 13.6525V14.7301H5.90066C3.41641 14.7301 1.39531 12.709 1.39531 10.2247C1.39531 9.83941 1.08293 9.52707 0.697656 9.52707C0.312344 9.52707 0 9.83945 0 10.2247C0 13.4784 2.64707 16.1254 5.9007 16.1254H14.3613V17.2031C14.3613 17.9197 15.1391 18.3701 15.7609 18.0111L18.8357 16.2358C19.4564 15.8775 19.4575 14.9788 18.8358 14.6198Z" fill="#7B6F72"/>
<path d="M14.0988 3.87458H5.63812V2.79692C5.63812 2.08024 4.86026 1.62989 4.23854 1.98887L1.16366 3.76415C0.542998 4.12247 0.541904 5.02126 1.16366 5.38024L4.23854 7.15555C4.85925 7.51391 5.63812 7.06536 5.63812 6.34751V5.26989H14.0988C16.5831 5.26989 18.6041 7.29094 18.6041 9.77524C18.6041 10.1606 18.9165 10.4729 19.3018 10.4729C19.6871 10.4729 19.9994 10.1605 19.9994 9.77524C19.9995 6.52161 17.3524 3.87458 14.0988 3.87458Z" fill="#7B6F72"/>
</svg>
