<svg width="20" height="17" viewBox="0 0 20 17" fill="none" xmlns="http://www.w3.org/2000/svg">
<path d="M19.6875 16.4688H17.1778C19.0615 15.1194 17.9517 12.4844 15.4688 12.4844H15.2472C15.4011 12.0219 15.29 11.8368 14.8687 10.2257C14.4823 8.74806 13.1796 7.51865 11.3931 7.07612C11.8185 6.83254 12.151 6.48065 12.3364 6.06754C12.4012 6.03228 12.3843 6.04194 12.7833 5.58317C14.1704 3.98836 13.2188 1.86954 11.25 1.24867V1.0625C11.25 0.476631 10.6893 0 10 0C9.31074 0 8.75 0.476631 8.75 1.0625V1.24867C6.78059 1.8697 5.83012 3.98892 7.21668 5.58317C7.61719 6.04367 7.59871 6.03228 7.66363 6.06754C7.84895 6.48042 8.18109 6.83211 8.60609 7.07569C7.94172 7.24027 7.31945 7.5216 6.78395 7.90593C6.65207 8.00056 6.63543 8.16813 6.7468 8.28023C6.85813 8.39229 7.05527 8.40647 7.18715 8.3118C8.3398 7.48455 9.93465 7.21003 11.408 7.63735C10.9554 9.08335 9.57348 10.1692 7.81988 10.4321L7.58348 10.4676L7.80504 9.62011C7.84246 9.4769 7.73625 9.33503 7.56777 9.30318C7.3993 9.27134 7.23234 9.36169 7.19492 9.50486C7.1223 9.78264 6.71793 11.3294 6.6243 11.6875H6.25C6.07742 11.6875 5.9375 11.8064 5.9375 11.9531C5.9375 12.0998 6.07742 12.2187 6.25 12.2187H7.42418C8.36258 12.2187 9.24484 11.9081 9.90848 11.344C9.96949 11.2922 10 11.2242 10 11.1562C10.0051 11.1562 9.98488 11.2534 10.0915 11.344C11.2359 12.3167 12.3926 12.2188 13.75 12.2188C13.9226 12.2188 14.0625 12.0998 14.0625 11.9531C14.0625 11.8064 13.9226 11.6875 13.75 11.6875H13.3757L12.959 10.0938H14.1822C14.2449 10.2733 14.2126 10.1665 14.6613 11.8827C14.8132 12.4637 14.2922 13.0156 13.5921 13.0156H10.9879C11.3348 12.3966 10.7976 11.6875 9.99992 11.6875C9.82734 11.6875 9.68742 11.8064 9.68742 11.9531C9.68742 12.0998 9.82734 12.2188 9.99992 12.2188C10.125 12.2188 10.2427 12.2602 10.3313 12.3355C10.6241 12.5843 10.419 13.0156 10 13.0156H6.40781C5.80387 13.0156 5.3125 12.598 5.3125 12.0846C5.3125 11.9454 5.30266 12.0165 5.74133 10.3412C5.78527 10.1733 5.84328 10.0074 5.9134 9.84818C5.97387 9.71078 5.89187 9.55772 5.73023 9.50632C5.56863 9.45489 5.38855 9.52458 5.32805 9.66201C5.24785 9.84416 5.18156 10.0338 5.13129 10.2258C4.7075 11.8443 4.5998 12.0258 4.7534 12.4844H4.53125C2.06035 12.4844 0.933867 15.1145 2.82012 16.4688H0.3125C0.139922 16.4688 0 16.5877 0 16.7344C0 16.8811 0.139922 17 0.3125 17H19.6875C19.8601 17 20 16.8811 20 16.7344C20 16.5877 19.8601 16.4688 19.6875 16.4688ZM8.125 5.3125C8.125 3.85355 8.11625 3.89317 8.15125 3.71686C8.4602 3.69836 8.73305 3.5446 8.87348 3.3059C8.89426 3.27044 8.92648 3.24049 8.96535 3.22001C9.05219 3.17475 8.94645 3.1875 10.9008 3.1875C11.1665 3.1875 11.0844 3.41444 11.4511 3.60785C11.5722 3.67097 11.7085 3.70822 11.8487 3.71682C11.8856 3.9025 11.875 3.88095 11.875 5.3125C11.875 6.19129 11.0339 6.90625 10 6.90625C8.96613 6.90625 8.125 6.19129 8.125 5.3125ZM7.12152 16.4688C6.85234 16.4688 6.77824 16.1502 7.02996 16.0646C8.34398 15.6179 8.2593 15.6493 8.29832 15.6273C8.96074 15.2524 9.08598 15.1406 9.43227 15.1406C9.82406 15.1406 10.1705 15.3529 10.2944 15.6688L10.3285 15.7559C10.3802 15.8876 10.5421 15.9633 10.7008 15.9296L14.6875 15.0824V16.4688H7.12152ZM5.3125 15.0824L7.1116 15.4647L6.79785 15.5714C6.3718 15.7162 6.16016 16.1075 6.28574 16.4687H5.3125V15.0824Z" fill="white"/>
</svg>
