<svg width="310" height="50" viewBox="0 0 310 50" fill="none" xmlns="http://www.w3.org/2000/svg">
<path d="M36.1789 3.9058C35.7572 3.99621 35.3811 4.23288 35.1171 4.57392C34.8532 4.91496 34.7184 5.33839 34.7366 5.76927V42.3077C34.6938 42.5691 34.7083 42.8367 34.7792 43.092C34.8501 43.3472 34.9756 43.584 35.1471 43.7859C35.3186 43.9878 35.532 44.15 35.7724 44.2612C36.0128 44.3724 36.2746 44.43 36.5395 44.43C36.8044 44.43 37.0661 44.3724 37.3065 44.2612C37.547 44.15 37.7603 43.9878 37.9318 43.7859C38.1033 43.584 38.2289 43.3472 38.2998 43.092C38.3706 42.8367 38.3852 42.5691 38.3424 42.3077V5.76927C38.3485 5.51243 38.3003 5.2572 38.2011 5.02022C38.1019 4.78325 37.9538 4.56988 37.7665 4.39402C37.5792 4.21817 37.3569 4.08379 37.1142 3.99967C36.8714 3.91554 36.6137 3.88356 36.3577 3.9058C36.2982 3.90288 36.2385 3.90288 36.1789 3.9058ZM13.102 5.82888C12.6803 5.91929 12.3042 6.15595 12.0402 6.497C11.7763 6.83804 11.6415 7.26146 11.6597 7.69234V40.3846C11.6168 40.6461 11.6314 40.9137 11.7023 41.1689C11.7731 41.4242 11.8987 41.6609 12.0702 41.8628C12.2417 42.0647 12.4551 42.2269 12.6955 42.3381C12.9359 42.4493 13.1976 42.507 13.4626 42.507C13.7275 42.507 13.9892 42.4493 14.2296 42.3381C14.47 42.2269 14.6834 42.0647 14.8549 41.8628C15.0264 41.6609 15.152 41.4242 15.2228 41.1689C15.2937 40.9137 15.3083 40.6461 15.2654 40.3846V7.69234C15.2715 7.43551 15.2234 7.18027 15.1242 6.9433C15.0249 6.70633 14.8769 6.49295 14.6896 6.3171C14.5023 6.14124 14.28 6.00687 14.0373 5.92274C13.7945 5.83862 13.5368 5.80663 13.2808 5.82888C13.2212 5.82596 13.1616 5.82596 13.102 5.82888ZM30.4097 11.5981C29.988 11.6885 29.6119 11.9252 29.3479 12.2662C29.084 12.6073 28.9491 13.0307 28.9674 13.4616V34.6154C28.9236 34.8772 28.9374 35.1453 29.0078 35.4012C29.0782 35.6571 29.2035 35.8946 29.375 36.0972C29.5465 36.2997 29.7601 36.4625 30.0009 36.5741C30.2417 36.6857 30.5039 36.7435 30.7693 36.7435C31.0347 36.7435 31.2969 36.6857 31.5377 36.5741C31.7785 36.4625 31.992 36.2997 32.1635 36.0972C32.335 35.8946 32.4603 35.6571 32.5307 35.4012C32.6012 35.1453 32.615 34.8772 32.5712 34.6154V13.4616C32.5772 13.2051 32.5292 12.9502 32.4302 12.7135C32.3312 12.4768 32.1835 12.2637 31.9966 12.0879C31.8098 11.9121 31.588 11.7776 31.3457 11.6932C31.1034 11.6088 30.8461 11.5764 30.5904 11.5981C30.5296 11.5951 30.4686 11.5951 30.4077 11.5981H30.4097ZM7.33274 13.5212C6.91107 13.6116 6.53496 13.8483 6.271 14.1893C6.00704 14.5303 5.87223 14.9538 5.89044 15.3846V32.6923C5.84668 32.9541 5.86048 33.2223 5.93089 33.4782C6.00129 33.7341 6.1266 33.9715 6.2981 34.1741C6.4696 34.3766 6.68317 34.5394 6.92396 34.651C7.16474 34.7626 7.42696 34.8205 7.69236 34.8205C7.95776 34.8205 8.21998 34.7626 8.46076 34.651C8.70154 34.5394 8.91512 34.3766 9.08662 34.1741C9.25812 33.9715 9.38343 33.7341 9.45383 33.4782C9.52423 33.2223 9.53804 32.9541 9.49428 32.6923V15.3846C9.50033 15.1282 9.45229 14.8733 9.35329 14.6366C9.25429 14.3999 9.10655 14.1867 8.91969 14.0109C8.73283 13.8352 8.51104 13.7007 8.26876 13.6163C8.02649 13.5319 7.76915 13.4995 7.51351 13.5212C7.45265 13.5181 7.39168 13.5181 7.33082 13.5212H7.33274ZM18.8712 15.4443C18.4495 15.5347 18.0734 15.7713 17.8095 16.1124C17.5455 16.4534 17.4107 16.8768 17.4289 17.3077V30.7693C17.3851 31.031 17.3989 31.2992 17.4693 31.5551C17.5397 31.811 17.6651 32.0485 17.8366 32.251C18.0081 32.4536 18.2216 32.6163 18.4624 32.7279C18.7032 32.8396 18.9654 32.8974 19.2308 32.8974C19.4962 32.8974 19.7584 32.8396 19.9992 32.7279C20.24 32.6163 20.4536 32.4536 20.6251 32.251C20.7966 32.0485 20.9219 31.811 20.9923 31.5551C21.0627 31.2992 21.0765 31.031 21.0327 30.7693V17.3077C21.0388 17.0512 20.9907 16.7964 20.8918 16.5597C20.7928 16.323 20.645 16.1098 20.4582 15.934C20.2713 15.7582 20.0495 15.6238 19.8072 15.5394C19.5649 15.455 19.3076 15.4226 19.052 15.4443C18.9911 15.4412 18.9301 15.4412 18.8693 15.4443H18.8712ZM41.9481 15.4443C41.5264 15.5347 41.1503 15.7713 40.8864 16.1124C40.6224 16.4534 40.4876 16.8768 40.5058 17.3077V30.7693C40.463 31.0307 40.4775 31.2983 40.5484 31.5535C40.6193 31.8088 40.7448 32.0456 40.9163 32.2474C41.0879 32.4493 41.3012 32.6115 41.5416 32.7227C41.7821 32.834 42.0438 32.8916 42.3087 32.8916C42.5736 32.8916 42.8353 32.834 43.0758 32.7227C43.3162 32.6115 43.5295 32.4493 43.7011 32.2474C43.8726 32.0456 43.9981 31.8088 44.069 31.5535C44.1399 31.2983 44.1544 31.0307 44.1116 30.7693V17.3077C44.1177 17.0509 44.0696 16.7957 43.9703 16.5587C43.8711 16.3217 43.723 16.1083 43.5357 15.9325C43.3484 15.7566 43.1262 15.6223 42.8834 15.5381C42.6407 15.454 42.3829 15.422 42.127 15.4443C42.0674 15.4413 42.0077 15.4413 41.9481 15.4443ZM1.56351 19.2904C1.14184 19.3808 0.765734 19.6175 0.501769 19.9585C0.237805 20.2996 0.102999 20.723 0.121206 21.1539V26.9231C0.0783748 27.1845 0.0929067 27.4521 0.163795 27.7074C0.234683 27.9626 0.360231 28.1994 0.531737 28.4013C0.703242 28.6032 0.916602 28.7654 1.15703 28.8766C1.39745 28.9878 1.65919 29.0454 1.92409 29.0454C2.189 29.0454 2.45073 28.9878 2.69116 28.8766C2.93158 28.7654 3.14494 28.6032 3.31645 28.4013C3.48795 28.1994 3.6135 27.9626 3.68439 27.7074C3.75527 27.4521 3.76981 27.1845 3.72698 26.9231V21.1539C3.73308 20.897 3.68494 20.6418 3.58571 20.4048C3.48649 20.1679 3.33839 19.9545 3.15111 19.7786C2.96382 19.6028 2.74155 19.4684 2.4988 19.3843C2.25606 19.3002 1.9983 19.2682 1.74236 19.2904C1.68214 19.2874 1.62181 19.2874 1.56159 19.2904H1.56351ZM24.6404 19.2904C24.2188 19.3808 23.8427 19.6175 23.5787 19.9585C23.3147 20.2996 23.1799 20.723 23.1981 21.1539V26.9231C23.1544 27.1849 23.1682 27.453 23.2386 27.7089C23.309 27.9648 23.4343 28.2023 23.6058 28.4049C23.7773 28.6074 23.9909 28.7702 24.2316 28.8818C24.4724 28.9934 24.7346 29.0512 25 29.0512C25.2654 29.0512 25.5277 28.9934 25.7684 28.8818C26.0092 28.7702 26.2228 28.6074 26.3943 28.4049C26.5658 28.2023 26.6911 27.9648 26.7615 27.7089C26.8319 27.453 26.8457 27.1849 26.802 26.9231V21.1539C26.808 20.8974 26.76 20.6425 26.661 20.4058C26.562 20.1692 26.4142 19.956 26.2274 19.7802C26.0405 19.6044 25.8187 19.4699 25.5765 19.3855C25.3342 19.3012 25.0768 19.2687 24.8212 19.2904C24.7603 19.2874 24.6994 19.2874 24.6385 19.2904H24.6404ZM47.7174 19.2904C47.2957 19.3808 46.9196 19.6175 46.6556 19.9585C46.3916 20.2996 46.2568 20.723 46.275 21.1539V26.9231C46.2322 27.1845 46.2467 27.4521 46.3176 27.7074C46.3885 27.9626 46.5141 28.1994 46.6856 28.4013C46.8571 28.6032 47.0704 28.7654 47.3109 28.8766C47.5513 28.9878 47.813 29.0454 48.0779 29.0454C48.3428 29.0454 48.6046 28.9878 48.845 28.8766C49.0854 28.7654 49.2988 28.6032 49.4703 28.4013C49.6418 28.1994 49.7673 27.9626 49.8382 27.7074C49.9091 27.4521 49.9236 27.1845 49.8808 26.9231V21.1539C49.8869 20.897 49.8388 20.6418 49.7395 20.4048C49.6403 20.1679 49.4922 19.9545 49.3049 19.7786C49.1177 19.6028 48.8954 19.4684 48.6526 19.3843C48.4099 19.3002 48.1521 19.2682 47.8962 19.2904C47.8366 19.2875 47.7769 19.2875 47.7174 19.2904Z" fill="white"/>
<path d="M88.1789 3.9058C87.7572 3.99621 87.3811 4.23288 87.1171 4.57392C86.8532 4.91496 86.7184 5.33839 86.7366 5.76927V42.3077C86.6937 42.5691 86.7083 42.8367 86.7792 43.092C86.8501 43.3472 86.9756 43.584 87.1471 43.7859C87.3186 43.9878 87.532 44.15 87.7724 44.2612C88.0128 44.3724 88.2746 44.43 88.5395 44.43C88.8044 44.43 89.0661 44.3724 89.3065 44.2612C89.5469 44.15 89.7603 43.9878 89.9318 43.7859C90.1033 43.584 90.2289 43.3472 90.2998 43.092C90.3706 42.8367 90.3852 42.5691 90.3423 42.3077V5.76927C90.3484 5.51243 90.3003 5.2572 90.2011 5.02022C90.1019 4.78325 89.9538 4.56988 89.7665 4.39402C89.5792 4.21817 89.3569 4.08379 89.1142 3.99967C88.8714 3.91554 88.6137 3.88356 88.3577 3.9058C88.2982 3.90288 88.2385 3.90288 88.1789 3.9058ZM65.102 5.82888C64.6803 5.91929 64.3042 6.15595 64.0402 6.497C63.7763 6.83804 63.6415 7.26146 63.6597 7.69234V40.3846C63.6168 40.6461 63.6314 40.9137 63.7022 41.1689C63.7731 41.4242 63.8987 41.6609 64.0702 41.8628C64.2417 42.0647 64.4551 42.2269 64.6955 42.3381C64.9359 42.4493 65.1976 42.507 65.4625 42.507C65.7274 42.507 65.9892 42.4493 66.2296 42.3381C66.47 42.2269 66.6834 42.0647 66.8549 41.8628C67.0264 41.6609 67.152 41.4242 67.2228 41.1689C67.2937 40.9137 67.3083 40.6461 67.2654 40.3846V7.69234C67.2715 7.43551 67.2234 7.18027 67.1242 6.9433C67.0249 6.70633 66.8768 6.49295 66.6896 6.3171C66.5023 6.14124 66.28 6.00687 66.0373 5.92274C65.7945 5.83862 65.5368 5.80663 65.2808 5.82888C65.2212 5.82596 65.1615 5.82596 65.102 5.82888ZM82.4097 11.5981C81.988 11.6885 81.6119 11.9252 81.3479 12.2662C81.0839 12.6073 80.9491 13.0307 80.9673 13.4616V34.6154C80.9236 34.8772 80.9374 35.1453 81.0078 35.4012C81.0782 35.6571 81.2035 35.8946 81.375 36.0972C81.5465 36.2997 81.7601 36.4625 82.0009 36.5741C82.2417 36.6857 82.5039 36.7435 82.7693 36.7435C83.0347 36.7435 83.2969 36.6857 83.5377 36.5741C83.7785 36.4625 83.992 36.2997 84.1635 36.0972C84.335 35.8946 84.4603 35.6571 84.5307 35.4012C84.6011 35.1453 84.6149 34.8772 84.5712 34.6154V13.4616C84.5772 13.2051 84.5292 12.9502 84.4302 12.7135C84.3312 12.4768 84.1835 12.2637 83.9966 12.0879C83.8097 11.9121 83.588 11.7776 83.3457 11.6932C83.1034 11.6088 82.8461 11.5764 82.5904 11.5981C82.5296 11.5951 82.4686 11.5951 82.4077 11.5981H82.4097ZM59.3327 13.5212C58.9111 13.6116 58.535 13.8483 58.271 14.1893C58.007 14.5303 57.8722 14.9538 57.8904 15.3846V32.6923C57.8467 32.9541 57.8605 33.2223 57.9309 33.4782C58.0013 33.7341 58.1266 33.9715 58.2981 34.1741C58.4696 34.3766 58.6832 34.5394 58.924 34.651C59.1647 34.7626 59.4269 34.8205 59.6924 34.8205C59.9578 34.8205 60.22 34.7626 60.4608 34.651C60.7015 34.5394 60.9151 34.3766 61.0866 34.1741C61.2581 33.9715 61.3834 33.7341 61.4538 33.4782C61.5242 33.2223 61.538 32.9541 61.4943 32.6923V15.3846C61.5003 15.1282 61.4523 14.8733 61.3533 14.6366C61.2543 14.3999 61.1065 14.1867 60.9197 14.0109C60.7328 13.8352 60.511 13.7007 60.2688 13.6163C60.0265 13.5319 59.7691 13.4995 59.5135 13.5212C59.4526 13.5181 59.3917 13.5181 59.3308 13.5212H59.3327ZM70.8712 15.4443C70.4495 15.5347 70.0734 15.7713 69.8095 16.1124C69.5455 16.4534 69.4107 16.8768 69.4289 17.3077V30.7693C69.3851 31.031 69.3989 31.2992 69.4693 31.5551C69.5397 31.811 69.6651 32.0485 69.8366 32.251C70.0081 32.4536 70.2216 32.6163 70.4624 32.7279C70.7032 32.8396 70.9654 32.8974 71.2308 32.8974C71.4962 32.8974 71.7584 32.8396 71.9992 32.7279C72.24 32.6163 72.4536 32.4536 72.6251 32.251C72.7966 32.0485 72.9219 31.811 72.9923 31.5551C73.0627 31.2992 73.0765 31.031 73.0327 30.7693V17.3077C73.0388 17.0512 72.9907 16.7964 72.8917 16.5597C72.7927 16.323 72.645 16.1098 72.4581 15.934C72.2713 15.7582 72.0495 15.6238 71.8072 15.5394C71.5649 15.455 71.3076 15.4226 71.052 15.4443C70.9911 15.4412 70.9301 15.4412 70.8693 15.4443H70.8712ZM93.9481 15.4443C93.5264 15.5347 93.1503 15.7713 92.8864 16.1124C92.6224 16.4534 92.4876 16.8768 92.5058 17.3077V30.7693C92.463 31.0307 92.4775 31.2983 92.5484 31.5535C92.6193 31.8088 92.7448 32.0456 92.9163 32.2474C93.0878 32.4493 93.3012 32.6115 93.5416 32.7227C93.782 32.834 94.0438 32.8916 94.3087 32.8916C94.5736 32.8916 94.8353 32.834 95.0758 32.7227C95.3162 32.6115 95.5295 32.4493 95.701 32.2474C95.8725 32.0456 95.9981 31.8088 96.069 31.5535C96.1399 31.2983 96.1544 31.0307 96.1116 30.7693V17.3077C96.1177 17.0509 96.0695 16.7957 95.9703 16.5587C95.8711 16.3217 95.723 16.1083 95.5357 15.9325C95.3484 15.7566 95.1261 15.6223 94.8834 15.5381C94.6407 15.454 94.3829 15.422 94.127 15.4443C94.0674 15.4413 94.0077 15.4413 93.9481 15.4443ZM53.5635 19.2904C53.1418 19.3808 52.7657 19.6175 52.5018 19.9585C52.2378 20.2996 52.103 20.723 52.1212 21.1539V26.9231C52.0784 27.1845 52.0929 27.4521 52.1638 27.7074C52.2347 27.9626 52.3602 28.1994 52.5317 28.4013C52.7032 28.6032 52.9166 28.7654 53.157 28.8766C53.3974 28.9878 53.6592 29.0454 53.9241 29.0454C54.189 29.0454 54.4507 28.9878 54.6911 28.8766C54.9316 28.7654 55.1449 28.6032 55.3164 28.4013C55.4879 28.1994 55.6135 27.9626 55.6844 27.7074C55.7553 27.4521 55.7698 27.1845 55.727 26.9231V21.1539C55.7331 20.897 55.6849 20.6418 55.5857 20.4048C55.4865 20.1679 55.3384 19.9545 55.1511 19.7786C54.9638 19.6028 54.7415 19.4684 54.4988 19.3843C54.2561 19.3002 53.9983 19.2682 53.7424 19.2904C53.6821 19.2874 53.6218 19.2874 53.5616 19.2904H53.5635ZM76.6404 19.2904C76.2187 19.3808 75.8426 19.6175 75.5787 19.9585C75.3147 20.2996 75.1799 20.723 75.1981 21.1539V26.9231C75.1544 27.1849 75.1682 27.453 75.2386 27.7089C75.309 27.9648 75.4343 28.2023 75.6058 28.4049C75.7773 28.6074 75.9909 28.7702 76.2316 28.8818C76.4724 28.9934 76.7346 29.0512 77 29.0512C77.2654 29.0512 77.5277 28.9934 77.7684 28.8818C78.0092 28.7702 78.2228 28.6074 78.3943 28.4049C78.5658 28.2023 78.6911 27.9648 78.7615 27.7089C78.8319 27.453 78.8457 27.1849 78.802 26.9231V21.1539C78.808 20.8974 78.76 20.6425 78.661 20.4058C78.562 20.1692 78.4142 19.956 78.2274 19.7802C78.0405 19.6044 77.8187 19.4699 77.5764 19.3855C77.3342 19.3012 77.0768 19.2687 76.8212 19.2904C76.7603 19.2874 76.6994 19.2874 76.6385 19.2904H76.6404ZM99.7173 19.2904C99.2957 19.3808 98.9196 19.6175 98.6556 19.9585C98.3916 20.2996 98.2568 20.723 98.275 21.1539V26.9231C98.2322 27.1845 98.2467 27.4521 98.3176 27.7074C98.3885 27.9626 98.5141 28.1994 98.6856 28.4013C98.8571 28.6032 99.0704 28.7654 99.3109 28.8766C99.5513 28.9878 99.813 29.0454 100.078 29.0454C100.343 29.0454 100.605 28.9878 100.845 28.8766C101.085 28.7654 101.299 28.6032 101.47 28.4013C101.642 28.1994 101.767 27.9626 101.838 27.7074C101.909 27.4521 101.924 27.1845 101.881 26.9231V21.1539C101.887 20.897 101.839 20.6418 101.74 20.4048C101.64 20.1679 101.492 19.9545 101.305 19.7786C101.118 19.6028 100.895 19.4684 100.653 19.3843C100.41 19.3002 100.152 19.2682 99.8962 19.2904C99.8366 19.2875 99.7769 19.2875 99.7173 19.2904Z" fill="white"/>
<path d="M140.082 4.00686C139.66 4.09727 139.284 4.33394 139.02 4.67498C138.756 5.01602 138.621 5.43945 138.639 5.87032V42.4088C138.597 42.6702 138.611 42.9378 138.682 43.193C138.753 43.4483 138.878 43.6851 139.05 43.887C139.221 44.0889 139.435 44.251 139.675 44.3623C139.916 44.4735 140.177 44.5311 140.442 44.5311C140.707 44.5311 140.969 44.4735 141.209 44.3623C141.45 44.251 141.663 44.0889 141.835 43.887C142.006 43.6851 142.132 43.4483 142.203 43.193C142.273 42.9378 142.288 42.6702 142.245 42.4088V5.87032C142.251 5.61349 142.203 5.35825 142.104 5.12128C142.005 4.88431 141.857 4.67094 141.669 4.49508C141.482 4.31923 141.26 4.18485 141.017 4.10072C140.774 4.0166 140.516 3.98461 140.261 4.00686C140.201 4.00394 140.141 4.00394 140.082 4.00686ZM117.005 5.92994C116.583 6.02035 116.207 6.25701 115.943 6.59806C115.679 6.9391 115.544 7.36252 115.562 7.7934V40.4857C115.52 40.7471 115.534 41.0147 115.605 41.27C115.676 41.5252 115.802 41.762 115.973 41.9639C116.145 42.1658 116.358 42.328 116.598 42.4392C116.839 42.5504 117.1 42.608 117.365 42.608C117.63 42.608 117.892 42.5504 118.132 42.4392C118.373 42.328 118.586 42.1658 118.758 41.9639C118.929 41.762 119.055 41.5252 119.126 41.27C119.197 41.0147 119.211 40.7471 119.168 40.4857V7.7934C119.174 7.53657 119.126 7.28133 119.027 7.04436C118.928 6.80739 118.78 6.59401 118.592 6.41816C118.405 6.2423 118.183 6.10793 117.94 6.0238C117.697 5.93968 117.44 5.90769 117.184 5.92994C117.124 5.92702 117.064 5.92702 117.005 5.92994ZM134.312 11.6992C133.891 11.7896 133.515 12.0262 133.251 12.3673C132.987 12.7083 132.852 13.1318 132.87 13.5626V34.7165C132.826 34.9782 132.84 35.2464 132.911 35.5023C132.981 35.7582 133.106 35.9957 133.278 36.1982C133.449 36.4008 133.663 36.5635 133.904 36.6751C134.144 36.7868 134.407 36.8446 134.672 36.8446C134.937 36.8446 135.2 36.7868 135.44 36.6751C135.681 36.5635 135.895 36.4008 136.066 36.1982C136.238 35.9957 136.363 35.7582 136.434 35.5023C136.504 35.2464 136.518 34.9782 136.474 34.7165V13.5626C136.48 13.3061 136.432 13.0513 136.333 12.8146C136.234 12.5779 136.086 12.3647 135.899 12.1889C135.713 12.0131 135.491 11.8787 135.248 11.7943C135.006 11.7099 134.749 11.6775 134.493 11.6992C134.432 11.6961 134.371 11.6961 134.311 11.6992H134.312ZM111.236 13.6222C110.814 13.7127 110.438 13.9493 110.174 14.2904C109.91 14.6314 109.775 15.0548 109.793 15.4857V32.7934C109.749 33.0552 109.763 33.3233 109.834 33.5792C109.904 33.8351 110.029 34.0726 110.201 34.2751C110.372 34.4777 110.586 34.6404 110.827 34.7521C111.068 34.8637 111.33 34.9215 111.595 34.9215C111.861 34.9215 112.123 34.8637 112.364 34.7521C112.604 34.6404 112.818 34.4777 112.989 34.2751C113.161 34.0726 113.286 33.8351 113.357 33.5792C113.427 33.3233 113.441 33.0552 113.397 32.7934V15.4857C113.403 15.2292 113.355 14.9743 113.256 14.7377C113.157 14.501 113.009 14.2878 112.823 14.112C112.636 13.9362 112.414 13.8017 112.172 13.7174C111.929 13.633 111.672 13.6006 111.416 13.6222C111.355 13.6192 111.294 13.6192 111.234 13.6222H111.236ZM122.774 15.5453C122.352 15.6357 121.976 15.8724 121.712 16.2134C121.448 16.5545 121.314 16.9779 121.332 17.4088V30.8703C121.288 31.1321 121.302 31.4003 121.372 31.6561C121.443 31.912 121.568 32.1495 121.739 32.3521C121.911 32.5546 122.124 32.7174 122.365 32.829C122.606 32.9406 122.868 32.9984 123.134 32.9984C123.399 32.9984 123.661 32.9406 123.902 32.829C124.143 32.7174 124.356 32.5546 124.528 32.3521C124.699 32.1495 124.825 31.912 124.895 31.6561C124.966 31.4003 124.979 31.1321 124.936 30.8703V17.4088C124.942 17.1523 124.894 16.8974 124.795 16.6607C124.696 16.4241 124.548 16.2109 124.361 16.0351C124.174 15.8593 123.952 15.7248 123.71 15.6404C123.468 15.5561 123.21 15.5236 122.955 15.5453C122.894 15.5423 122.833 15.5423 122.772 15.5453H122.774ZM145.851 15.5453C145.429 15.6357 145.053 15.8724 144.789 16.2134C144.525 16.5545 144.39 16.9779 144.409 17.4088V30.8703C144.366 31.1317 144.38 31.3993 144.451 31.6546C144.522 31.9098 144.648 32.1466 144.819 32.3485C144.991 32.5504 145.204 32.7126 145.444 32.8238C145.685 32.935 145.947 32.9926 146.212 32.9926C146.476 32.9926 146.738 32.935 146.979 32.8238C147.219 32.7126 147.432 32.5504 147.604 32.3485C147.775 32.1466 147.901 31.9098 147.972 31.6546C148.043 31.3993 148.057 31.1317 148.014 30.8703V17.4088C148.021 17.1519 147.972 16.8967 147.873 16.6597C147.774 16.4228 147.626 16.2094 147.439 16.0335C147.251 15.8577 147.029 15.7233 146.786 15.6392C146.543 15.5551 146.286 15.5231 146.03 15.5453C145.97 15.5424 145.911 15.5424 145.851 15.5453ZM105.466 19.3915C105.045 19.4819 104.669 19.7186 104.405 20.0596C104.141 20.4006 104.006 20.8241 104.024 21.2549V27.0242C103.981 27.2856 103.996 27.5532 104.067 27.8084C104.137 28.0637 104.263 28.3005 104.435 28.5024C104.606 28.7042 104.819 28.8664 105.06 28.9776C105.3 29.0889 105.562 29.1465 105.827 29.1465C106.092 29.1465 106.354 29.0889 106.594 28.9776C106.834 28.8664 107.048 28.7042 107.219 28.5024C107.391 28.3005 107.516 28.0637 107.587 27.8084C107.658 27.5532 107.673 27.2856 107.63 27.0242V21.2549C107.636 20.9981 107.588 20.7429 107.489 20.5059C107.389 20.2689 107.241 20.0555 107.054 19.8797C106.867 19.7038 106.644 19.5695 106.402 19.4853C106.159 19.4012 105.901 19.3692 105.645 19.3915C105.585 19.3885 105.525 19.3885 105.464 19.3915H105.466ZM128.543 19.3915C128.122 19.4819 127.745 19.7186 127.482 20.0596C127.218 20.4006 127.083 20.8241 127.101 21.2549V27.0242C127.057 27.2859 127.071 27.5541 127.141 27.81C127.212 28.0659 127.337 28.3034 127.509 28.5059C127.68 28.7085 127.894 28.8712 128.134 28.9828C128.375 29.0945 128.637 29.1523 128.903 29.1523C129.168 29.1523 129.43 29.0945 129.671 28.9828C129.912 28.8712 130.126 28.7085 130.297 28.5059C130.469 28.3034 130.594 28.0659 130.664 27.81C130.735 27.5541 130.749 27.2859 130.705 27.0242V21.2549C130.711 20.9985 130.663 20.7436 130.564 20.5069C130.465 20.2702 130.317 20.057 130.13 19.8812C129.943 19.7054 129.722 19.571 129.479 19.4866C129.237 19.4022 128.98 19.3698 128.724 19.3915C128.663 19.3884 128.602 19.3884 128.541 19.3915H128.543ZM151.62 19.3915C151.198 19.4819 150.822 19.7186 150.558 20.0596C150.294 20.4006 150.16 20.8241 150.178 21.2549V27.0242C150.135 27.2856 150.15 27.5532 150.22 27.8084C150.291 28.0637 150.417 28.3005 150.588 28.5024C150.76 28.7042 150.973 28.8664 151.214 28.9776C151.454 29.0889 151.716 29.1465 151.981 29.1465C152.246 29.1465 152.507 29.0889 152.748 28.9776C152.988 28.8664 153.202 28.7042 153.373 28.5024C153.545 28.3005 153.67 28.0637 153.741 27.8084C153.812 27.5532 153.826 27.2856 153.784 27.0242V21.2549C153.79 20.9981 153.742 20.7429 153.642 20.5059C153.543 20.2689 153.395 20.0555 153.208 19.8797C153.02 19.7038 152.798 19.5695 152.555 19.4853C152.313 19.4012 152.055 19.3692 151.799 19.3915C151.739 19.3886 151.68 19.3886 151.62 19.3915Z" fill="white"/>
<path d="M192.082 4.00686C191.66 4.09727 191.284 4.33394 191.02 4.67498C190.756 5.01602 190.621 5.43945 190.639 5.87032V42.4088C190.597 42.6702 190.611 42.9378 190.682 43.193C190.753 43.4483 190.878 43.6851 191.05 43.887C191.221 44.0889 191.435 44.251 191.675 44.3623C191.916 44.4735 192.177 44.5311 192.442 44.5311C192.707 44.5311 192.969 44.4735 193.209 44.3623C193.45 44.251 193.663 44.0889 193.835 43.887C194.006 43.6851 194.132 43.4483 194.203 43.193C194.273 42.9378 194.288 42.6702 194.245 42.4088V5.87032C194.251 5.61349 194.203 5.35825 194.104 5.12128C194.005 4.88431 193.857 4.67094 193.669 4.49508C193.482 4.31923 193.26 4.18485 193.017 4.10072C192.774 4.0166 192.516 3.98461 192.261 4.00686C192.201 4.00394 192.141 4.00394 192.082 4.00686ZM169.005 5.92994C168.583 6.02035 168.207 6.25701 167.943 6.59806C167.679 6.9391 167.544 7.36252 167.562 7.7934V40.4857C167.52 40.7471 167.534 41.0147 167.605 41.27C167.676 41.5252 167.801 41.762 167.973 41.9639C168.145 42.1658 168.358 42.328 168.598 42.4392C168.839 42.5504 169.1 42.608 169.365 42.608C169.63 42.608 169.892 42.5504 170.132 42.4392C170.373 42.328 170.586 42.1658 170.758 41.9639C170.929 41.762 171.055 41.5252 171.126 41.27C171.197 41.0147 171.211 40.7471 171.168 40.4857V7.7934C171.174 7.53657 171.126 7.28133 171.027 7.04436C170.928 6.80739 170.78 6.59401 170.592 6.41816C170.405 6.2423 170.183 6.10793 169.94 6.0238C169.697 5.93967 169.44 5.90769 169.184 5.92994C169.124 5.92702 169.064 5.92702 169.005 5.92994ZM186.312 11.6992C185.891 11.7896 185.515 12.0262 185.251 12.3673C184.987 12.7083 184.852 13.1318 184.87 13.5626V34.7165C184.826 34.9782 184.84 35.2464 184.911 35.5023C184.981 35.7582 185.106 35.9957 185.278 36.1982C185.449 36.4008 185.663 36.5635 185.904 36.6751C186.144 36.7868 186.407 36.8446 186.672 36.8446C186.937 36.8446 187.2 36.7868 187.44 36.6751C187.681 36.5635 187.895 36.4008 188.066 36.1982C188.238 35.9957 188.363 35.7582 188.434 35.5023C188.504 35.2464 188.518 34.9782 188.474 34.7165V13.5626C188.48 13.3061 188.432 13.0513 188.333 12.8146C188.234 12.5779 188.086 12.3647 187.899 12.1889C187.713 12.0131 187.491 11.8787 187.248 11.7943C187.006 11.7099 186.749 11.6775 186.493 11.6992C186.432 11.6961 186.371 11.6961 186.311 11.6992H186.312ZM163.236 13.6222C162.814 13.7127 162.438 13.9493 162.174 14.2904C161.91 14.6314 161.775 15.0548 161.793 15.4857V32.7934C161.749 33.0552 161.763 33.3233 161.834 33.5792C161.904 33.8351 162.029 34.0726 162.201 34.2751C162.372 34.4777 162.586 34.6404 162.827 34.7521C163.068 34.8637 163.33 34.9215 163.595 34.9215C163.861 34.9215 164.123 34.8637 164.364 34.7521C164.604 34.6404 164.818 34.4777 164.989 34.2751C165.161 34.0726 165.286 33.8351 165.357 33.5792C165.427 33.3233 165.441 33.0552 165.397 32.7934V15.4857C165.403 15.2292 165.355 14.9743 165.256 14.7377C165.157 14.501 165.009 14.2878 164.823 14.112C164.636 13.9362 164.414 13.8017 164.172 13.7174C163.929 13.633 163.672 13.6006 163.416 13.6222C163.355 13.6192 163.294 13.6192 163.234 13.6222H163.236ZM174.774 15.5453C174.352 15.6357 173.976 15.8724 173.712 16.2134C173.448 16.5545 173.313 16.9779 173.332 17.4088V30.8703C173.288 31.1321 173.302 31.4003 173.372 31.6561C173.443 31.912 173.568 32.1495 173.739 32.3521C173.911 32.5546 174.124 32.7174 174.365 32.829C174.606 32.9406 174.868 32.9984 175.134 32.9984C175.399 32.9984 175.661 32.9406 175.902 32.829C176.143 32.7174 176.356 32.5546 176.528 32.3521C176.699 32.1495 176.825 31.912 176.895 31.6561C176.966 31.4003 176.979 31.1321 176.936 30.8703V17.4088C176.942 17.1523 176.894 16.8974 176.795 16.6607C176.696 16.4241 176.548 16.2109 176.361 16.0351C176.174 15.8593 175.952 15.7248 175.71 15.6404C175.468 15.5561 175.21 15.5236 174.955 15.5453C174.894 15.5423 174.833 15.5423 174.772 15.5453H174.774ZM197.851 15.5453C197.429 15.6357 197.053 15.8724 196.789 16.2134C196.525 16.5545 196.39 16.9779 196.409 17.4088V30.8703C196.366 31.1317 196.38 31.3993 196.451 31.6546C196.522 31.9098 196.648 32.1466 196.819 32.3485C196.991 32.5504 197.204 32.7126 197.444 32.8238C197.685 32.935 197.947 32.9926 198.212 32.9926C198.476 32.9926 198.738 32.935 198.979 32.8238C199.219 32.7126 199.432 32.5504 199.604 32.3485C199.775 32.1466 199.901 31.9098 199.972 31.6546C200.043 31.3993 200.057 31.1317 200.014 30.8703V17.4088C200.02 17.1519 199.972 16.8967 199.873 16.6597C199.774 16.4228 199.626 16.2094 199.439 16.0335C199.251 15.8577 199.029 15.7233 198.786 15.6392C198.543 15.5551 198.286 15.5231 198.03 15.5453C197.97 15.5424 197.911 15.5424 197.851 15.5453ZM157.466 19.3915C157.045 19.4819 156.669 19.7186 156.405 20.0596C156.141 20.4006 156.006 20.8241 156.024 21.2549V27.0242C155.981 27.2856 155.996 27.5532 156.067 27.8084C156.137 28.0637 156.263 28.3005 156.435 28.5024C156.606 28.7042 156.819 28.8664 157.06 28.9776C157.3 29.0889 157.562 29.1465 157.827 29.1465C158.092 29.1465 158.354 29.0889 158.594 28.9776C158.834 28.8664 159.048 28.7042 159.219 28.5024C159.391 28.3005 159.516 28.0637 159.587 27.8084C159.658 27.5532 159.673 27.2856 159.63 27.0242V21.2549C159.636 20.9981 159.588 20.7429 159.489 20.5059C159.389 20.2689 159.241 20.0555 159.054 19.8797C158.867 19.7038 158.644 19.5695 158.402 19.4853C158.159 19.4012 157.901 19.3692 157.645 19.3915C157.585 19.3885 157.525 19.3885 157.464 19.3915H157.466ZM180.543 19.3915C180.122 19.4819 179.745 19.7186 179.481 20.0596C179.218 20.4006 179.083 20.8241 179.101 21.2549V27.0242C179.057 27.2859 179.071 27.5541 179.141 27.81C179.212 28.0659 179.337 28.3034 179.509 28.5059C179.68 28.7085 179.894 28.8712 180.134 28.9828C180.375 29.0945 180.637 29.1523 180.903 29.1523C181.168 29.1523 181.43 29.0945 181.671 28.9828C181.912 28.8712 182.126 28.7085 182.297 28.5059C182.469 28.3034 182.594 28.0659 182.664 27.81C182.735 27.5541 182.749 27.2859 182.705 27.0242V21.2549C182.711 20.9985 182.663 20.7436 182.564 20.5069C182.465 20.2702 182.317 20.057 182.13 19.8812C181.943 19.7054 181.722 19.571 181.479 19.4866C181.237 19.4022 180.98 19.3698 180.724 19.3915C180.663 19.3884 180.602 19.3884 180.541 19.3915H180.543ZM203.62 19.3915C203.198 19.4819 202.822 19.7186 202.558 20.0596C202.294 20.4006 202.16 20.8241 202.178 21.2549V27.0242C202.135 27.2856 202.15 27.5532 202.22 27.8084C202.291 28.0637 202.417 28.3005 202.588 28.5024C202.76 28.7042 202.973 28.8664 203.214 28.9776C203.454 29.0889 203.716 29.1465 203.981 29.1465C204.246 29.1465 204.507 29.0889 204.748 28.9776C204.988 28.8664 205.202 28.7042 205.373 28.5024C205.545 28.3005 205.67 28.0637 205.741 27.8084C205.812 27.5532 205.826 27.2856 205.784 27.0242V21.2549C205.79 20.9981 205.742 20.7429 205.642 20.5059C205.543 20.2689 205.395 20.0555 205.208 19.8797C205.02 19.7038 204.798 19.5695 204.555 19.4853C204.313 19.4012 204.055 19.3692 203.799 19.3915C203.739 19.3886 203.68 19.3886 203.62 19.3915Z" fill="white"/>
<path d="M244.082 4.00687C243.66 4.09728 243.284 4.33394 243.02 4.67499C242.756 5.01603 242.621 5.43945 242.639 5.87033V42.4088C242.597 42.6702 242.611 42.9378 242.682 43.1931C242.753 43.4483 242.878 43.6851 243.05 43.887C243.221 44.0889 243.435 44.251 243.675 44.3623C243.916 44.4735 244.177 44.5311 244.442 44.5311C244.707 44.5311 244.969 44.4735 245.209 44.3623C245.45 44.251 245.663 44.0889 245.835 43.887C246.006 43.6851 246.132 43.4483 246.203 43.1931C246.273 42.9378 246.288 42.6702 246.245 42.4088V5.87033C246.251 5.6135 246.203 5.35826 246.104 5.12129C246.005 4.88432 245.857 4.67094 245.669 4.49509C245.482 4.31923 245.26 4.18486 245.017 4.10073C244.774 4.01661 244.516 3.98462 244.261 4.00687C244.201 4.00395 244.141 4.00395 244.082 4.00687ZM221.005 5.92995C220.583 6.02035 220.207 6.25702 219.943 6.59806C219.679 6.9391 219.544 7.36253 219.562 7.79341V40.4857C219.52 40.7471 219.534 41.0147 219.605 41.27C219.676 41.5252 219.801 41.762 219.973 41.9639C220.145 42.1658 220.358 42.328 220.598 42.4392C220.839 42.5504 221.1 42.608 221.365 42.608C221.63 42.608 221.892 42.5504 222.132 42.4392C222.373 42.328 222.586 42.1658 222.758 41.9639C222.929 41.762 223.055 41.5252 223.126 41.27C223.197 41.0147 223.211 40.7471 223.168 40.4857V7.79341C223.174 7.53657 223.126 7.28134 223.027 7.04437C222.928 6.8074 222.78 6.59402 222.592 6.41816C222.405 6.24231 222.183 6.10793 221.94 6.02381C221.697 5.93968 221.44 5.9077 221.184 5.92995C221.124 5.92703 221.064 5.92703 221.005 5.92995ZM238.312 11.6992C237.891 11.7896 237.515 12.0263 237.251 12.3673C236.987 12.7083 236.852 13.1318 236.87 13.5626V34.7165C236.826 34.9783 236.84 35.2464 236.911 35.5023C236.981 35.7582 237.106 35.9957 237.278 36.1982C237.449 36.4008 237.663 36.5635 237.904 36.6752C238.144 36.7868 238.407 36.8446 238.672 36.8446C238.937 36.8446 239.2 36.7868 239.44 36.6752C239.681 36.5635 239.895 36.4008 240.066 36.1982C240.238 35.9957 240.363 35.7582 240.434 35.5023C240.504 35.2464 240.518 34.9783 240.474 34.7165V13.5626C240.48 13.3062 240.432 13.0513 240.333 12.8146C240.234 12.5779 240.086 12.3647 239.899 12.1889C239.713 12.0131 239.491 11.8787 239.248 11.7943C239.006 11.7099 238.749 11.6775 238.493 11.6992C238.432 11.6961 238.371 11.6961 238.311 11.6992H238.312ZM215.236 13.6223C214.814 13.7127 214.438 13.9493 214.174 14.2904C213.91 14.6314 213.775 15.0548 213.793 15.4857V32.7934C213.749 33.0552 213.763 33.3233 213.834 33.5792C213.904 33.8351 214.029 34.0726 214.201 34.2752C214.372 34.4777 214.586 34.6404 214.827 34.7521C215.068 34.8637 215.33 34.9215 215.595 34.9215C215.861 34.9215 216.123 34.8637 216.364 34.7521C216.604 34.6404 216.818 34.4777 216.989 34.2752C217.161 34.0726 217.286 33.8351 217.357 33.5792C217.427 33.3233 217.441 33.0552 217.397 32.7934V15.4857C217.403 15.2292 217.355 14.9744 217.256 14.7377C217.157 14.501 217.009 14.2878 216.822 14.112C216.636 13.9362 216.414 13.8018 216.172 13.7174C215.929 13.633 215.672 13.6006 215.416 13.6223C215.355 13.6192 215.294 13.6192 215.234 13.6223H215.236ZM226.774 15.5453C226.352 15.6357 225.976 15.8724 225.712 16.2134C225.448 16.5545 225.313 16.9779 225.332 17.4088V30.8703C225.288 31.1321 225.302 31.4003 225.372 31.6562C225.443 31.912 225.568 32.1495 225.739 32.3521C225.911 32.5546 226.124 32.7174 226.365 32.829C226.606 32.9406 226.868 32.9985 227.134 32.9985C227.399 32.9985 227.661 32.9406 227.902 32.829C228.143 32.7174 228.356 32.5546 228.528 32.3521C228.699 32.1495 228.825 31.912 228.895 31.6562C228.965 31.4003 228.979 31.1321 228.936 30.8703V17.4088C228.942 17.1523 228.894 16.8974 228.795 16.6607C228.696 16.4241 228.548 16.2109 228.361 16.0351C228.174 15.8593 227.952 15.7248 227.71 15.6404C227.468 15.5561 227.21 15.5237 226.955 15.5453C226.894 15.5423 226.833 15.5423 226.772 15.5453H226.774ZM249.851 15.5453C249.429 15.6357 249.053 15.8724 248.789 16.2134C248.525 16.5545 248.39 16.9779 248.409 17.4088V30.8703C248.366 31.1317 248.38 31.3994 248.451 31.6546C248.522 31.9098 248.648 32.1466 248.819 32.3485C248.991 32.5504 249.204 32.7126 249.444 32.8238C249.685 32.935 249.947 32.9926 250.211 32.9926C250.476 32.9926 250.738 32.935 250.979 32.8238C251.219 32.7126 251.432 32.5504 251.604 32.3485C251.775 32.1466 251.901 31.9098 251.972 31.6546C252.043 31.3994 252.057 31.1317 252.014 30.8703V17.4088C252.02 17.152 251.972 16.8967 251.873 16.6598C251.774 16.4228 251.626 16.2094 251.439 16.0335C251.251 15.8577 251.029 15.7233 250.786 15.6392C250.543 15.5551 250.286 15.5231 250.03 15.5453C249.97 15.5424 249.91 15.5424 249.851 15.5453ZM209.466 19.3915C209.045 19.4819 208.669 19.7186 208.405 20.0596C208.141 20.4006 208.006 20.8241 208.024 21.2549V27.0242C207.981 27.2856 207.996 27.5532 208.067 27.8084C208.137 28.0637 208.263 28.3005 208.435 28.5024C208.606 28.7043 208.819 28.8664 209.06 28.9777C209.3 29.0889 209.562 29.1465 209.827 29.1465C210.092 29.1465 210.354 29.0889 210.594 28.9777C210.834 28.8664 211.048 28.7043 211.219 28.5024C211.391 28.3005 211.516 28.0637 211.587 27.8084C211.658 27.5532 211.673 27.2856 211.63 27.0242V21.2549C211.636 20.9981 211.588 20.7429 211.489 20.5059C211.389 20.2689 211.241 20.0556 211.054 19.8797C210.867 19.7038 210.644 19.5695 210.402 19.4853C210.159 19.4012 209.901 19.3692 209.645 19.3915C209.585 19.3885 209.525 19.3885 209.464 19.3915H209.466ZM232.543 19.3915C232.122 19.4819 231.745 19.7186 231.481 20.0596C231.218 20.4006 231.083 20.8241 231.101 21.2549V27.0242C231.057 27.2859 231.071 27.5541 231.141 27.81C231.212 28.0659 231.337 28.3034 231.509 28.5059C231.68 28.7085 231.894 28.8712 232.134 28.9828C232.375 29.0945 232.637 29.1523 232.903 29.1523C233.168 29.1523 233.43 29.0945 233.671 28.9828C233.912 28.8712 234.126 28.7085 234.297 28.5059C234.469 28.3034 234.594 28.0659 234.664 27.81C234.735 27.5541 234.749 27.2859 234.705 27.0242V21.2549C234.711 20.9985 234.663 20.7436 234.564 20.5069C234.465 20.2702 234.317 20.057 234.13 19.8812C233.943 19.7055 233.722 19.571 233.479 19.4866C233.237 19.4022 232.98 19.3698 232.724 19.3915C232.663 19.3884 232.602 19.3884 232.541 19.3915H232.543ZM255.62 19.3915C255.198 19.4819 254.822 19.7186 254.558 20.0596C254.294 20.4006 254.16 20.8241 254.178 21.2549V27.0242C254.135 27.2856 254.15 27.5532 254.22 27.8084C254.291 28.0637 254.417 28.3005 254.588 28.5024C254.76 28.7043 254.973 28.8664 255.214 28.9777C255.454 29.0889 255.716 29.1465 255.981 29.1465C256.246 29.1465 256.507 29.0889 256.748 28.9777C256.988 28.8664 257.202 28.7043 257.373 28.5024C257.545 28.3005 257.67 28.0637 257.741 27.8084C257.812 27.5532 257.826 27.2856 257.784 27.0242V21.2549C257.79 20.9981 257.742 20.7429 257.642 20.5059C257.543 20.2689 257.395 20.0556 257.208 19.8797C257.02 19.7038 256.798 19.5695 256.555 19.4853C256.313 19.4012 256.055 19.3692 255.799 19.3915C255.739 19.3886 255.68 19.3886 255.62 19.3915Z" fill="white"/>
<path d="M296.082 4.00687C295.66 4.09728 295.284 4.33394 295.02 4.67499C294.756 5.01603 294.621 5.43945 294.639 5.87033V42.4088C294.597 42.6702 294.611 42.9378 294.682 43.1931C294.753 43.4483 294.878 43.6851 295.05 43.887C295.221 44.0889 295.435 44.251 295.675 44.3623C295.916 44.4735 296.177 44.5311 296.442 44.5311C296.707 44.5311 296.969 44.4735 297.209 44.3623C297.45 44.251 297.663 44.0889 297.835 43.887C298.006 43.6851 298.132 43.4483 298.203 43.1931C298.273 42.9378 298.288 42.6702 298.245 42.4088V5.87033C298.251 5.6135 298.203 5.35826 298.104 5.12129C298.005 4.88432 297.857 4.67094 297.669 4.49509C297.482 4.31923 297.26 4.18486 297.017 4.10073C296.774 4.01661 296.516 3.98462 296.261 4.00687C296.201 4.00395 296.141 4.00395 296.082 4.00687ZM273.005 5.92995C272.583 6.02035 272.207 6.25702 271.943 6.59806C271.679 6.9391 271.544 7.36253 271.562 7.79341V40.4857C271.52 40.7471 271.534 41.0147 271.605 41.27C271.676 41.5252 271.801 41.762 271.973 41.9639C272.144 42.1658 272.358 42.328 272.598 42.4392C272.839 42.5504 273.1 42.608 273.365 42.608C273.63 42.608 273.892 42.5504 274.132 42.4392C274.373 42.328 274.586 42.1658 274.758 41.9639C274.929 41.762 275.055 41.5252 275.126 41.27C275.197 41.0147 275.211 40.7471 275.168 40.4857V7.79341C275.174 7.53657 275.126 7.28134 275.027 7.04437C274.928 6.8074 274.78 6.59402 274.592 6.41816C274.405 6.24231 274.183 6.10793 273.94 6.02381C273.697 5.93968 273.44 5.9077 273.184 5.92995C273.124 5.92703 273.064 5.92703 273.005 5.92995ZM290.312 11.6992C289.891 11.7896 289.515 12.0263 289.251 12.3673C288.987 12.7083 288.852 13.1318 288.87 13.5626V34.7165C288.826 34.9783 288.84 35.2464 288.911 35.5023C288.981 35.7582 289.106 35.9957 289.278 36.1982C289.449 36.4008 289.663 36.5635 289.904 36.6752C290.144 36.7868 290.407 36.8446 290.672 36.8446C290.937 36.8446 291.2 36.7868 291.44 36.6752C291.681 36.5635 291.895 36.4008 292.066 36.1982C292.238 35.9957 292.363 35.7582 292.434 35.5023C292.504 35.2464 292.518 34.9783 292.474 34.7165V13.5626C292.48 13.3062 292.432 13.0513 292.333 12.8146C292.234 12.5779 292.086 12.3647 291.899 12.1889C291.713 12.0131 291.491 11.8787 291.248 11.7943C291.006 11.7099 290.749 11.6775 290.493 11.6992C290.432 11.6961 290.371 11.6961 290.311 11.6992H290.312ZM267.236 13.6223C266.814 13.7127 266.438 13.9493 266.174 14.2904C265.91 14.6314 265.775 15.0548 265.793 15.4857V32.7934C265.749 33.0552 265.763 33.3233 265.834 33.5792C265.904 33.8351 266.029 34.0726 266.201 34.2752C266.372 34.4777 266.586 34.6404 266.827 34.7521C267.068 34.8637 267.33 34.9215 267.595 34.9215C267.861 34.9215 268.123 34.8637 268.364 34.7521C268.604 34.6404 268.818 34.4777 268.989 34.2752C269.161 34.0726 269.286 33.8351 269.357 33.5792C269.427 33.3233 269.441 33.0552 269.397 32.7934V15.4857C269.403 15.2292 269.355 14.9744 269.256 14.7377C269.157 14.501 269.009 14.2878 268.822 14.112C268.636 13.9362 268.414 13.8018 268.172 13.7174C267.929 13.633 267.672 13.6006 267.416 13.6223C267.355 13.6192 267.294 13.6192 267.234 13.6223H267.236ZM278.774 15.5453C278.352 15.6357 277.976 15.8724 277.712 16.2134C277.448 16.5545 277.313 16.9779 277.332 17.4088V30.8703C277.288 31.1321 277.302 31.4003 277.372 31.6562C277.443 31.912 277.568 32.1495 277.739 32.3521C277.911 32.5546 278.124 32.7174 278.365 32.829C278.606 32.9406 278.868 32.9985 279.134 32.9985C279.399 32.9985 279.661 32.9406 279.902 32.829C280.143 32.7174 280.356 32.5546 280.528 32.3521C280.699 32.1495 280.825 31.912 280.895 31.6562C280.965 31.4003 280.979 31.1321 280.936 30.8703V17.4088C280.942 17.1523 280.894 16.8974 280.795 16.6607C280.696 16.4241 280.548 16.2109 280.361 16.0351C280.174 15.8593 279.952 15.7248 279.71 15.6404C279.468 15.5561 279.21 15.5237 278.955 15.5453C278.894 15.5423 278.833 15.5423 278.772 15.5453H278.774ZM301.851 15.5453C301.429 15.6357 301.053 15.8724 300.789 16.2134C300.525 16.5545 300.39 16.9779 300.409 17.4088V30.8703C300.366 31.1317 300.38 31.3994 300.451 31.6546C300.522 31.9098 300.648 32.1466 300.819 32.3485C300.991 32.5504 301.204 32.7126 301.444 32.8238C301.685 32.935 301.947 32.9926 302.211 32.9926C302.476 32.9926 302.738 32.935 302.979 32.8238C303.219 32.7126 303.432 32.5504 303.604 32.3485C303.775 32.1466 303.901 31.9098 303.972 31.6546C304.043 31.3994 304.057 31.1317 304.014 30.8703V17.4088C304.02 17.152 303.972 16.8967 303.873 16.6598C303.774 16.4228 303.626 16.2094 303.439 16.0335C303.251 15.8577 303.029 15.7233 302.786 15.6392C302.543 15.5551 302.286 15.5231 302.03 15.5453C301.97 15.5424 301.91 15.5424 301.851 15.5453ZM261.466 19.3915C261.045 19.4819 260.669 19.7186 260.405 20.0596C260.141 20.4006 260.006 20.8241 260.024 21.2549V27.0242C259.981 27.2856 259.996 27.5532 260.067 27.8084C260.137 28.0637 260.263 28.3005 260.435 28.5024C260.606 28.7043 260.819 28.8664 261.06 28.9777C261.3 29.0889 261.562 29.1465 261.827 29.1465C262.092 29.1465 262.354 29.0889 262.594 28.9777C262.834 28.8664 263.048 28.7043 263.219 28.5024C263.391 28.3005 263.516 28.0637 263.587 27.8084C263.658 27.5532 263.673 27.2856 263.63 27.0242V21.2549C263.636 20.9981 263.588 20.7429 263.489 20.5059C263.389 20.2689 263.241 20.0556 263.054 19.8797C262.867 19.7038 262.644 19.5695 262.402 19.4853C262.159 19.4012 261.901 19.3692 261.645 19.3915C261.585 19.3885 261.525 19.3885 261.464 19.3915H261.466ZM284.543 19.3915C284.122 19.4819 283.745 19.7186 283.481 20.0596C283.218 20.4006 283.083 20.8241 283.101 21.2549V27.0242C283.057 27.2859 283.071 27.5541 283.141 27.81C283.212 28.0659 283.337 28.3034 283.509 28.5059C283.68 28.7085 283.894 28.8712 284.134 28.9828C284.375 29.0945 284.637 29.1523 284.903 29.1523C285.168 29.1523 285.43 29.0945 285.671 28.9828C285.912 28.8712 286.126 28.7085 286.297 28.5059C286.469 28.3034 286.594 28.0659 286.664 27.81C286.735 27.5541 286.749 27.2859 286.705 27.0242V21.2549C286.711 20.9985 286.663 20.7436 286.564 20.5069C286.465 20.2702 286.317 20.057 286.13 19.8812C285.943 19.7055 285.722 19.571 285.479 19.4866C285.237 19.4022 284.98 19.3698 284.724 19.3915C284.663 19.3884 284.602 19.3884 284.541 19.3915H284.543ZM307.62 19.3915C307.198 19.4819 306.822 19.7186 306.558 20.0596C306.294 20.4006 306.16 20.8241 306.178 21.2549V27.0242C306.135 27.2856 306.15 27.5532 306.22 27.8084C306.291 28.0637 306.417 28.3005 306.588 28.5024C306.76 28.7043 306.973 28.8664 307.214 28.9777C307.454 29.0889 307.716 29.1465 307.981 29.1465C308.246 29.1465 308.507 29.0889 308.748 28.9777C308.988 28.8664 309.202 28.7043 309.373 28.5024C309.545 28.3005 309.67 28.0637 309.741 27.8084C309.812 27.5532 309.826 27.2856 309.784 27.0242V21.2549C309.79 20.9981 309.742 20.7429 309.642 20.5059C309.543 20.2689 309.395 20.0556 309.208 19.8797C309.02 19.7038 308.798 19.5695 308.555 19.4853C308.313 19.4012 308.055 19.3692 307.799 19.3915C307.739 19.3886 307.68 19.3886 307.62 19.3915Z" fill="white"/>
</svg>
