<svg width="74" height="102" viewBox="0 0 74 102" fill="none" xmlns="http://www.w3.org/2000/svg">
<path d="M64.2637 60.0959C65.1467 51.3188 64.3047 42.764 62.7982 34.1248C61.9206 29.0721 61.5729 23.9453 61.7604 18.8238C61.9243 15.2663 61.0109 11.7405 59.1343 8.68694C56.9906 4.99837 53.3358 2.02085 48.8435 2.5408C48.6395 2.58303 48.4286 2.58303 48.2245 2.5408C48.0597 2.47924 47.906 2.39222 47.7694 2.28305C45.4482 0.563195 41.6204 0.0432393 38.7712 0.0032427C35.2608 -0.056326 31.7869 0.705587 28.6398 2.22527C23.3237 4.82949 19.2229 9.85128 18.1715 15.5575C17.8029 17.9306 17.757 20.3409 18.035 22.7257C18.217 24.7033 18.4901 26.7254 18.1306 28.663C17.6254 31.3294 15.9777 33.6315 14.9446 36.1512C13.6391 39.2914 13.0086 42.6601 13.0921 46.0482C13.1968 48.4746 13.9387 54.6341 16.7651 55.514C20.5747 56.705 24.5981 57.0828 28.5988 57.4516L39.8772 58.5004C41.807 58.6782 43.7732 58.856 45.653 58.4027C47.0594 58.0649 48.3565 57.3894 49.7493 57.0072C51.4779 56.5357 53.3045 56.5265 55.038 56.9806" fill="#AA4F7A"/>
<g style="mix-blend-mode:multiply" opacity="0.32">
<g style="mix-blend-mode:multiply" opacity="0.32">
<path d="M30.9565 11.0473L23.6743 13.2027C23.5416 13.2335 23.4163 13.2894 23.3056 13.3671C23.182 13.4809 23.0923 13.6253 23.0462 13.7849C21.7961 16.8839 20.949 20.1237 20.5247 23.4285C19.9876 27.7437 21.9993 32.01 20.7113 36.3163L19.2275 41.4491C18.4811 43.9512 17.7301 46.582 18.3172 49.124C18.7724 51.1239 19.9876 52.857 20.8797 54.7058C22.2204 57.4885 22.8245 60.5552 22.6365 63.625C22.6365 63.5272 28.5534 62.3584 29.095 62.2029C31.3045 61.586 33.4773 60.8501 35.6035 59.9987C37.4514 59.2609 39.2446 58.3588 41.0971 57.6922C42.2031 57.3011 43.218 57.0167 43.9827 56.0879C46.0991 53.5148 46.5906 48.9774 46.6726 45.8177C46.7653 42.0924 46.047 38.3904 44.5653 34.9564C43.5304 32.5539 42.1057 30.3301 40.3461 28.3703" fill="#AA4F7A"/>
</g>
</g>
<path d="M8.49035 58.7672C4.39407 65.3045 1.88624 72.7305 0.511714 80.2854C-0.0799705 83.5518 -0.448635 87.0581 1.08974 90.0134C3.59757 94.9019 10.5021 93.5376 14.9397 92.5643C21.7031 91.0889 29.9594 88.0803 34.1922 82.5696" fill="#EA7C99"/>
<path d="M72.029 93.1331C73.7085 88.4713 73.3398 82.614 72.9393 78.0233C72.4523 72.1616 71.1915 66.8065 68.3378 61.5092C66.1986 57.5451 63.9502 53.181 59.7402 51.0656C57.7011 50.0391 55.4982 49.368 53.3682 48.4925C50.7739 47.4171 48.2934 45.1106 49.0125 42.1197C49.4676 40.1421 50.9241 38.5245 52.4215 37.1113C53.2781 36.2646 54.0692 35.357 54.7882 34.396C54.8296 34.3346 54.8859 34.2842 54.9521 34.2493C55.051 34.2256 55.1551 34.235 55.2479 34.276C56.3712 34.6259 57.5745 34.6496 58.7113 34.3443C59.8482 34.039 60.8697 33.4177 61.6518 32.5561C63.1355 30.9563 63.536 27.5565 62.2298 25.7078C61.101 24.108 58.2837 23.5569 56.5314 24.2768C57.2141 20.686 57.3416 15.5842 55.8077 12.1845C54.3786 8.89149 50.6874 6.4117 47.5333 4.89183C44.3791 3.37196 40.9292 3.0831 37.4928 3.4564C33.8836 3.85192 30.1332 5.17181 28.0396 8.06489C27.2423 9.26296 26.6289 10.5685 26.219 11.9401C25.0349 15.3979 24.204 18.9617 23.7385 22.5792C23.3471 25.6456 23.2469 29.2808 23.916 32.3161C24.2877 34.2191 25.2395 35.9679 26.6468 37.3335C28.3991 38.9422 29.8783 39.4577 32.2633 39.7866C34.7529 40.1332 38.3167 40.6043 39.5455 43.053C41.7393 47.3593 38.1801 49.4036 34.5117 50.639C26.5786 53.3054 26.8516 61.1937 25.7866 67.9353C25.3315 70.9217 23.966 73.3348 22.9875 76.139C22.4665 77.8474 22.1608 79.6113 22.0772 81.3919C21.9907 82.3874 21.5356 83.7873 21.6903 84.7561C21.8542 85.796 22.7099 86.3293 23.5428 87.0092C26.1052 89.0935 29.0045 90.7689 31.8582 92.4087C34.3343 93.7791 36.9466 94.9003 39.6548 95.7551C43.437 97.0084 46.937 98.5815 50.8604 99.4215C53.8034 100.098 56.7972 100.544 59.813 100.755C64.4145 101.017 68.7155 99.3059 71.0004 95.2929C71.406 94.6031 71.7502 93.8805 72.029 93.1331Z" fill="#FF8DA8"/>
<g style="mix-blend-mode:multiply" opacity="0.2">
<g style="mix-blend-mode:multiply" opacity="0.2">
<path d="M45.2392 3.68725C45.8263 6.2737 45.353 8.95791 45.048 11.5888C44.7431 14.2197 44.6384 17.015 45.8673 19.3792C46.6695 20.8265 47.9094 21.997 49.4179 22.7311C50.9264 23.4651 52.63 23.727 54.2965 23.4811C53.4495 18.3915 51.7129 13.482 49.1625 8.9668" fill="#FF8DA8"/>
</g>
</g>
<path d="M30.1184 12.0025C29.7406 10.4249 26.7822 11.6648 26.0221 12.2247C25.3804 12.6913 24.502 13.6779 25.4987 14.2957C26.4955 14.9134 28.6255 13.7313 29.422 13.1802C29.818 12.8913 30.2322 12.4469 30.1184 12.0025Z" fill="#843860"/>
<path d="M41.9204 11.3891C42.2982 9.81143 45.2566 11.0558 46.0167 11.6157C46.6539 12.0601 47.5323 13.0645 46.5355 13.6822C45.5388 14.2999 43.4087 13.1178 42.6122 12.5668C42.2208 12.2912 41.8066 11.8601 41.9204 11.3891Z" fill="#843860"/>
<path d="M59.8489 100.769C64.4504 101.031 68.7515 99.3198 71.0363 95.3068C71.4301 94.6115 71.7621 93.8845 72.0285 93.1337C73.708 88.4718 73.3393 82.6146 72.9388 78.0239C72.4518 72.1621 71.191 66.807 68.3373 61.5097C66.4257 57.9545 64.4185 54.1104 61.0095 51.8172C60.8957 51.8839 60.7774 51.9505 60.6681 52.0216C54.369 55.9458 48.7844 61.7141 41.3883 62.7496C37.019 63.3584 32.5586 62.1763 28.5852 60.292C28.1028 60.061 27.5976 59.821 27.0787 59.5943C26.4506 62.2608 26.2367 65.2161 25.8043 67.9536C25.3492 70.94 23.9837 73.3531 23.0052 76.1574C22.4842 77.8657 22.1785 79.6296 22.0949 81.4102C22.0084 82.4057 21.5533 83.8056 21.708 84.7744C21.8719 85.8143 22.7275 86.3476 23.5604 87.0275C26.1229 89.1118 29.0221 90.7872 31.8759 92.4271C34.352 93.7974 36.9643 94.9186 39.6725 95.7734C43.4547 97.0267 46.9547 98.5999 50.878 99.4398C53.8272 100.116 56.8271 100.56 59.8489 100.769Z" fill="#F26757"/>
<g style="mix-blend-mode:multiply" opacity="0.25">
<g style="mix-blend-mode:multiply" opacity="0.25">
<path d="M46.7495 34.9419C49.1701 34.9419 51.1325 33.0258 51.1325 30.6622C51.1325 28.2986 49.1701 26.3826 46.7495 26.3826C44.3288 26.3826 42.3664 28.2986 42.3664 30.6622C42.3664 33.0258 44.3288 34.9419 46.7495 34.9419Z" fill="#FF8DA8"/>
</g>
<g style="mix-blend-mode:multiply" opacity="0.25">
<path d="M26.6816 29.2234C26.681 28.293 26.3696 27.3882 25.7946 26.6463C25.2196 25.9045 24.4124 25.366 23.4956 25.1126C23.3079 27.5212 23.4472 29.9435 23.9098 32.3164C23.969 32.5831 24.0418 32.8497 24.1192 33.1119C24.8835 32.7723 25.5316 32.2251 25.986 31.5355C26.4404 30.846 26.6819 30.0433 26.6816 29.2234Z" fill="#FF8DA8"/>
</g>
</g>
<path d="M73.5303 77.0725C73.1862 73.3649 72.4229 69.7059 71.2546 66.1623C70.3443 63.3759 69.516 60.0295 67.2949 57.9852C63.854 54.8166 59.0796 55.5143 55.7525 58.5674C51.4104 62.5671 52.744 67.7355 54.783 72.464C56.2349 75.8326 57.8917 79.2101 58.1784 82.8498C58.2277 83.1589 58.19 83.4754 58.0692 83.7652C57.7779 84.3207 57.0132 84.423 56.3715 84.423C53.1218 84.423 49.9312 83.6186 46.7816 82.8231L37.3511 80.4411C34.5975 79.7478 31.812 79.0456 29.1358 78.0946C26.8238 81.1846 24.9085 84.5397 23.4329 88.0849C27.6976 91.3957 32.1944 94.5999 37.3193 96.4753C44.9565 99.275 54.651 103.301 63.0894 101.59C65.2363 101.199 67.2396 100.262 68.8969 98.8727C70.5543 97.4838 71.8071 95.6926 72.529 93.6799C74.4998 88.4404 73.9946 82.5209 73.5303 77.0725Z" fill="#FF8DA8"/>
<path d="M51.319 47.2836C50.6308 46.7793 50.047 46.152 49.5985 45.4349C46.57 46.4228 43.2972 46.4384 40.259 45.4794C40.2674 46.2815 40.0016 47.0634 39.5035 47.7014C43.3699 48.9217 47.553 48.7738 51.319 47.2836Z" fill="#F7BF54"/>
<path d="M44.4503 2.08292C46.1662 3.59835 46.6304 5.90926 46.8535 8.06907C47.1948 11.4199 47.1812 14.864 48.4692 18.0193C49.7573 21.1746 52.7567 24.0588 56.4661 24.1699C56.6772 24.1932 56.8905 24.1513 57.0759 24.0499C57.2102 23.9316 57.3052 23.7769 57.349 23.6055C59.7112 17.3261 57.349 9.82892 51.678 5.62484C49.6799 4.1583 47.3405 3.08284 45.0647 2.02071" fill="#AA4F7A"/>
<g style="mix-blend-mode:multiply" opacity="0.2">
<g style="mix-blend-mode:multiply" opacity="0.2">
<path d="M25.5894 14.068C28.4614 14.8858 31.4517 15.4546 34.442 15.2635C37.4322 15.0724 40.4316 14.0725 42.6345 12.0771C44.8374 10.0817 46.0708 7.01088 45.4518 4.1489C41.5893 6.95245 36.9598 8.57058 32.1526 8.79739" fill="#FF8DA8"/>
</g>
</g>
<path d="M45.5848 2.77624C46.4314 5.00272 45.4028 7.55805 43.7005 9.29124C40.8969 12.1443 36.6595 13.1398 32.6269 13.4998C28.5944 13.8597 24.4662 13.7309 20.593 14.8863C21.6171 9.83786 25.8135 5.78043 30.6835 3.80727C35.5535 1.8341 41.0061 1.70967 46.2402 2.28295" fill="#AA4F7A"/>
<path d="M31.152 29.8403C31.1543 29.8092 31.1543 29.778 31.152 29.747C31.1373 29.6243 31.098 29.5056 31.0362 29.3979C30.9745 29.2901 30.8915 29.1953 30.7921 29.1189C30.6928 29.0425 30.5789 28.986 30.4571 28.9527C30.3353 28.9194 30.208 28.9099 30.0824 28.9248L19.8645 30.098C19.6481 30.1239 19.4471 30.2206 19.2942 30.3723C19.1413 30.5241 19.0455 30.7219 19.0225 30.9335L17.2019 47.9587C17.1763 48.2065 17.2518 48.4542 17.412 48.648C17.5722 48.8418 17.8041 48.9662 18.0576 48.9942H18.1622C18.4001 48.9932 18.6293 48.9065 18.8057 48.7507C18.9821 48.5948 19.0934 48.3808 19.118 48.1498L20.8703 31.8757L29.9322 30.8313C30.0103 30.5657 30.1684 30.3292 30.3859 30.1525C30.6034 29.9758 30.8703 29.867 31.152 29.8403Z" fill="#B9B5EC"/>
<path d="M36.9002 25.2766C36.8547 25.2766 36.7727 25.4988 36.5406 25.8499C36.2023 26.3465 35.7297 26.7418 35.1752 26.992C34.8098 27.1635 34.4108 27.2559 34.0055 27.2631C33.5503 27.2631 33.3046 27.112 33.391 26.6587C33.4775 26.2054 33.7642 25.7166 33.9418 25.1833C34.1521 24.6329 34.3329 24.0722 34.4834 23.5034C35.0252 21.5123 35.2342 19.4489 35.1024 17.3928C34.9977 15.8152 34.72 14.873 34.6472 14.8864C34.5744 14.8997 34.6973 15.8596 34.7018 17.4062C34.7136 19.4167 34.4565 21.4201 33.9372 23.3656C33.7779 23.9345 33.6141 24.4855 33.4229 25.0055C33.3319 25.2677 33.2272 25.521 33.1316 25.7699C33.0156 26.0292 32.93 26.3005 32.8767 26.5787C32.8451 26.7342 32.8451 26.8943 32.8767 27.0498C32.9132 27.2219 33.0058 27.3778 33.1407 27.4942C33.3865 27.6756 33.6954 27.7554 34.0009 27.7164C34.4673 27.6857 34.921 27.5552 35.3299 27.3342C35.9223 27.0268 36.4001 26.5447 36.6954 25.9565C36.9229 25.5388 36.9275 25.2855 36.9002 25.2766Z" fill="#C45673"/>
<path d="M31.6339 19.6996C31.552 19.6996 31.4883 20.424 31.1788 21.5439C31.0079 22.1983 30.781 22.8375 30.5006 23.4548C30.3354 23.8061 30.1309 24.1385 29.8907 24.4458C29.6705 24.7549 29.3497 24.982 28.9804 25.0902C28.8113 25.1434 28.6306 25.1508 28.4575 25.1117C28.2843 25.0726 28.1253 24.9884 27.9973 24.868C27.7468 24.5862 27.5564 24.2583 27.4375 23.9037C27.1763 23.2823 26.9826 22.6358 26.8595 21.975C26.6683 20.8373 26.7184 20.104 26.6274 20.0951C26.5363 20.0862 26.3725 20.8195 26.4726 22.0238C26.5314 22.7305 26.6844 23.4267 26.9277 24.0948C27.0569 24.5235 27.2806 24.9194 27.5832 25.2547C27.772 25.4476 28.0138 25.5833 28.2795 25.6457C28.544 25.7103 28.8207 25.7103 29.0851 25.6457C29.581 25.5085 30.0133 25.2088 30.3095 24.7969C30.5712 24.443 30.7882 24.0596 30.9558 23.6548C31.2353 23.0027 31.4428 22.3234 31.5747 21.6283C31.7841 20.4462 31.7022 19.6996 31.6339 19.6996Z" fill="#C45673"/>
<path d="M46.2396 19.3085C46.1531 19.3085 46.185 20.144 45.9164 21.4284C45.7609 22.1727 45.5149 22.8963 45.1837 23.5837C44.9976 23.9685 44.7345 24.3131 44.4099 24.597C44.0725 24.8796 43.6438 25.037 43.1992 25.0414C42.9824 25.0236 42.7718 24.9614 42.5812 24.8588C42.3906 24.7562 42.2243 24.6155 42.0932 24.4459C41.811 24.116 41.5851 23.7438 41.4242 23.3437C41.1286 22.6293 40.9193 21.8835 40.8006 21.1217C40.5958 19.8285 40.6823 19.0019 40.5958 18.993C40.5094 18.9841 40.3 19.8063 40.4092 21.1706C40.4855 21.9769 40.6739 22.7693 40.969 23.526C41.1339 23.9897 41.3786 24.4226 41.6927 24.8058C41.8731 25.0308 42.1002 25.216 42.359 25.3493C42.6179 25.4826 42.9027 25.5609 43.1947 25.5791C43.7761 25.5833 44.3386 25.3775 44.774 25.0014C45.1624 24.6701 45.4729 24.2608 45.6843 23.8015C46.0111 23.0645 46.2317 22.2868 46.3397 21.4906C46.4808 20.1396 46.3033 19.3041 46.2396 19.3085Z" fill="#C45673"/>
<path d="M56.3711 32.9204C56.4485 32.876 56.1572 32.4404 56.1162 31.6672C56.0982 31.2138 56.1693 30.7613 56.3256 30.334C56.5198 29.8128 56.7979 29.3253 57.1494 28.8896C57.7963 28.0726 58.5926 27.3795 59.4979 26.8454C60.1988 26.4321 60.6813 26.2454 60.6585 26.1654C60.6358 26.0854 60.1033 26.1654 59.3159 26.5076C58.2877 26.9735 57.3922 27.6785 56.7079 28.5608C56.3168 29.0476 56.0206 29.6004 55.834 30.1918C55.6833 30.6829 55.6475 31.2008 55.7294 31.7072C55.8841 32.5782 56.3301 32.9693 56.3711 32.9204Z" fill="#C45673"/>
<path d="M56.9952 32.2672C57.0179 32.3294 57.3365 32.2939 57.7143 31.9739C57.9513 31.7592 58.1418 31.5003 58.2747 31.2126C58.4076 30.9248 58.4801 30.614 58.488 30.2985C58.4989 29.6819 58.3231 29.0759 57.9828 28.5564C57.7234 28.1698 57.4958 27.9876 57.4366 28.0276C57.3775 28.0676 57.4822 28.3298 57.6278 28.7253C57.829 29.2202 57.9309 29.7482 57.9282 30.2807C57.9092 30.7968 57.7351 31.296 57.4275 31.7161C57.1863 32.0405 56.9587 32.1916 56.9952 32.2672Z" fill="#C45673"/>
<path d="M31.1378 31.3825C30.9423 31.3273 30.752 31.2559 30.5689 31.1692C30.3823 31.09 30.2239 30.9585 30.1138 30.7914C30.0982 30.7651 30.09 30.7352 30.09 30.7048C30.09 30.6744 30.0982 30.6445 30.1138 30.6181C30.1624 30.5385 30.2314 30.4727 30.314 30.427C30.4096 30.3693 30.5371 30.3026 30.669 30.2404L30.8693 30.1515L31.0241 30.0893C31.082 30.0506 31.1341 30.0043 31.1788 29.9515C31.2107 29.9115 31.2562 29.8449 31.3017 29.7738C31.3002 29.5916 31.225 29.4174 31.0923 29.2894L30.9558 29.2227L30.8966 29.1782L30.7919 29.1071C30.7253 29.0603 30.6615 29.0099 30.6008 28.956C30.4796 28.8505 30.3684 28.7345 30.2685 28.6094C30.1747 28.491 30.0895 28.3662 30.0136 28.2361C29.9681 28.1206 29.9818 28.1383 30.0136 28.0983C30.1036 28.0378 30.2094 28.0039 30.3186 28.0006C30.455 27.9939 30.5918 27.9939 30.7282 28.0006L31.5247 28.0272C32.5033 28.0272 33.1132 28.0272 33.1177 27.9472C33.1223 27.8672 32.526 27.7606 31.5566 27.645L30.7601 27.5562H30.5416C30.4552 27.5516 30.3686 27.5516 30.2822 27.5562C30.0718 27.5554 29.8664 27.6192 29.695 27.7384C29.5776 27.8278 29.5008 27.9587 29.4811 28.1028C29.4649 28.2325 29.4887 28.364 29.5494 28.4805C29.6315 28.6506 29.7323 28.8115 29.8498 28.9605C29.9668 29.1194 30.0978 29.2681 30.2412 29.4049C30.314 29.4671 30.3914 29.5338 30.4733 29.5915L30.5962 29.676L30.6508 29.7115L30.4415 29.8138C30.3049 29.8849 30.1729 29.956 30.0273 30.0493C29.8697 30.154 29.7439 30.2984 29.6632 30.467C29.6243 30.5619 29.6086 30.6643 29.6172 30.7661C29.6259 30.8679 29.6588 30.9664 29.7132 31.0536C29.8812 31.285 30.1179 31.4603 30.3914 31.5558C30.5049 31.6022 30.6221 31.6394 30.7419 31.6669L31.0423 31.7336C31.8069 31.8891 32.2757 31.9558 32.2939 31.8891C32.3121 31.8225 31.8661 31.6314 31.1378 31.3825Z" fill="#C45673"/>
<path d="M30.8198 49.2124L6.91575 50.6167L10.5569 80.8985C10.5958 81.2177 10.7597 81.5097 11.0143 81.7135C11.2688 81.9173 11.5942 82.017 11.9223 81.9918L27.1741 81.063C27.4804 81.0447 27.7696 80.9191 27.9887 80.7093C28.2078 80.4994 28.3419 80.2195 28.3666 79.9208L30.8198 49.2124Z" fill="#F9A353"/>
<path d="M9.87891 75.3615L29.1268 70.0908L30.465 53.5989L8.00828 59.745L9.87891 75.3615Z" fill="#F7BF54"/>
<g style="mix-blend-mode:multiply" opacity="0.14">
<g style="mix-blend-mode:multiply" opacity="0.14">
<path d="M6.91575 50.6167L10.5569 80.8986C10.5958 81.2177 10.7597 81.5097 11.0143 81.7135C11.2688 81.9173 11.5942 82.017 11.9223 81.9918L24.0609 81.2541C20.8176 76.6602 18.2828 71.6262 16.5374 66.3132C14.839 61.104 14.0963 55.6427 14.3437 50.1812L6.91575 50.6167Z" fill="#F9A353"/>
</g>
</g>
<path d="M30.8408 46.4758L5.60533 47.9915C5.04333 48.0253 4.61576 48.4975 4.65033 49.0462L4.74646 50.5721C4.78103 51.1209 5.26465 51.5383 5.82665 51.5046L31.0621 49.9889C31.6241 49.9551 32.0516 49.4829 32.0171 48.9342L31.9209 47.4083C31.8864 46.8596 31.4028 46.4421 30.8408 46.4758Z" fill="#F7BF54"/>
<g style="mix-blend-mode:multiply" opacity="0.2">
<g style="mix-blend-mode:multiply" opacity="0.2">
<path d="M73.5305 77.0719C73.1864 73.3643 72.4232 69.7053 71.2548 66.1617C70.3445 63.3753 69.5162 60.0289 67.2951 57.9846C64.7782 55.6692 61.5558 55.4248 58.702 56.6514L52.9764 66.5617C53.3114 68.5993 53.9237 70.584 54.7969 72.4634C55.8301 74.8587 56.9634 77.263 57.637 79.7605C60.7798 80.2801 63.9579 80.5698 67.1449 80.6271C69.3756 80.6944 71.6076 80.5455 73.8082 80.1827C73.7035 79.1072 73.617 78.0896 73.5305 77.0719Z" fill="#FF8DA8"/>
</g>
</g>
<path d="M54.2591 76.9605C60.3807 78.2938 67.9133 77.9782 73.8302 75.1474C73.6572 73.4808 71.65 67.6636 71.4634 67.0547C70.1299 62.6507 69.1877 58.0244 65.6376 55.0558C62.4516 52.3538 58.1096 51.6827 54.7506 54.4603C54.0002 55.1116 53.3745 55.888 52.9028 56.7534C50.4131 61.0641 51.419 67.2592 52.7617 71.8188C53.2532 73.5312 53.7524 75.2451 54.2591 76.9605Z" fill="#DB5449"/>
<path d="M60.3085 47.1454C59.2616 44.8745 60.1901 42.6747 58.8657 40.4794C58.1647 39.3283 56.8903 38.2573 56.4443 36.9597C56.0438 35.8175 56.0574 34.2932 55.9482 33.0622C55.6437 29.7093 55.902 26.3303 56.7128 23.0586C56.77 22.8852 56.7901 22.7022 56.772 22.5209C56.6981 22.2741 56.5527 22.0534 56.3533 21.8854C54.9795 20.5021 53.7037 19.0292 52.5346 17.4769L53.6816 23.4586C53.5587 24.6851 53.3949 25.8984 53.1992 27.1427C52.8693 29.5233 52.1935 31.8457 51.192 34.0399C48.8662 38.8173 47.3961 45.039 49.7765 50.1052C50.755 52.1806 52.7213 53.9138 55.047 54.1493C58.0009 54.4426 60.9912 52.3717 63.8085 53.2605C62.4659 51.323 61.295 49.2772 60.3085 47.1454Z" fill="#AA4F7A"/>
<path d="M30.1595 92.5062C26.0632 90.3908 19.9825 86.4222 20.6834 81.1205C20.862 79.4738 21.335 77.8704 22.0807 76.3831C22.7133 75.2499 23.4461 74.2322 22.8044 72.859C22.3811 71.9702 21.3343 71.3391 20.5924 70.7169C19.6598 69.9776 18.8479 69.104 18.1847 68.126C18.1363 68.0695 18.1031 68.0022 18.088 67.9301C18.0729 67.8579 18.0764 67.7832 18.0982 67.7127C18.5169 66.9884 21.5072 68.5616 21.9806 68.8549C23.3048 69.6622 24.3941 70.7886 25.1438 72.1257C25.0619 71.9746 25.1939 71.3924 25.1711 71.1836C25.1127 70.8765 25.0148 70.5779 24.8798 70.2947C24.6857 69.6753 24.4485 69.0695 24.1698 68.4816C23.5144 67.2461 22.5813 66.1795 21.8076 65.0196C21.6086 64.7558 21.4718 64.4523 21.4071 64.1308C21.3764 63.9723 21.3936 63.8084 21.4566 63.6593C21.5196 63.5101 21.6258 63.3821 21.7621 63.2909C22.2172 63.0376 22.768 63.402 23.1548 63.7353C23.9968 64.473 25.0482 65.2996 25.558 66.3129C26.1588 67.5039 26.4956 68.9215 26.9234 70.1792C27.3785 70.2725 26.8278 67.2283 26.7322 66.9528C26.4182 66.0329 26.3317 65.2018 25.7719 64.3975C25.0437 63.3576 24.097 62.3177 24.0924 61.0555C24.0774 60.9206 24.0969 60.7842 24.1494 60.6585C24.2018 60.5328 24.2855 60.4218 24.3928 60.3356C24.766 60.109 25.2257 60.4378 25.517 60.7578C27.5879 63.0554 28.307 66.1173 28.6666 69.0993L29.8591 64.5486C29.9546 64.1931 30.1822 63.7486 30.5509 63.8242C30.6687 63.8591 30.7743 63.9252 30.8558 64.0153C31.8844 65.0596 31.5203 66.5884 31.2563 67.8461C30.9514 69.3037 30.7193 70.7792 30.5236 72.2546C30.3506 73.5478 30.0684 74.8321 30.0184 76.1387C29.9592 77.3119 30.6556 78.0452 31.6933 78.6229C32.2583 78.8856 32.8462 79.0983 33.4501 79.2584C34.0828 79.4762 34.6563 79.8406 35.3071 80.0361" fill="#FF8DA8"/>
<path d="M64.2185 20.8904C60.3771 19.6772 55.8165 19.5883 51.8249 19.6061H51.7885C51.2242 15.3975 48.1474 12.1667 44.4608 12.1667C40.988 12.1667 38.0888 15.0198 37.2695 18.855C36.6909 18.3293 35.9299 18.037 35.1395 18.037C34.3491 18.037 33.588 18.3293 33.0094 18.855C32.3176 14.8553 29.3182 11.7978 25.7271 11.7978C21.6309 11.7978 18.3038 15.7575 18.3038 20.6237C18.3038 25.49 21.6309 29.4496 25.7271 29.4496C29.8234 29.4496 33.1505 25.49 33.1505 20.6237C33.1505 20.486 33.1505 20.3527 33.1505 20.2149C33.3141 19.8356 33.5898 19.5125 33.9423 19.2868C34.2948 19.0611 34.7082 18.9432 35.1297 18.9479C35.5512 18.9527 35.9617 19.08 36.3088 19.3136C36.6559 19.5472 36.9238 19.8764 37.0784 20.2593C37.0784 20.5038 37.0465 20.7482 37.0465 20.997C37.0465 25.8855 40.3781 29.8229 44.4699 29.8229C48.5616 29.8229 51.8932 25.8588 51.8932 20.9926C51.8932 20.8371 51.8932 20.6904 51.8932 20.5482C54.8301 20.5322 57.7638 20.7372 60.6683 21.1615C61.7834 21.3259 62.8894 21.5481 63.9909 21.797C66.2984 22.3214 66.7217 24.5123 66.831 26.4455C66.8674 27.0454 67.8323 27.0499 67.7913 26.4455C67.5956 23.8679 66.9129 21.7303 64.2185 20.8904ZM25.7362 28.3164C22.2772 28.3164 19.469 24.8634 19.469 20.6193C19.469 16.3752 22.2772 12.9222 25.7362 12.9222C29.1953 12.9222 32.0035 16.3752 32.0035 20.6193C32.0035 24.8634 29.1908 28.3164 25.7362 28.3164ZM44.4608 28.6897C41.0062 28.6897 38.1935 25.2367 38.1935 20.9926C38.1935 16.7485 41.0062 13.2955 44.4608 13.2955C47.9153 13.2955 50.7326 16.7485 50.7326 20.9926C50.7326 25.2367 47.9198 28.6897 44.4608 28.6897Z" fill="#F7BF54"/>
<g style="mix-blend-mode:multiply" opacity="0.2">
<g style="mix-blend-mode:multiply" opacity="0.2">
<path d="M72.4382 93.9105C69.8199 94.1073 67.25 94.7073 64.8237 95.6881C61.6428 97.0007 58.9012 99.1558 56.9088 101.91C58.9751 102.075 61.055 101.962 63.0896 101.572C65.1916 101.189 67.1567 100.283 68.7946 98.9403C70.4324 97.598 71.6875 95.8655 72.4382 93.9105Z" fill="#FF8DA8"/>
</g>
</g>
</svg>
