<svg width="21" height="20" viewBox="0 0 21 20" fill="none" xmlns="http://www.w3.org/2000/svg">
<path d="M16.0175 7.68252C16.2464 7.47333 16.2498 7.13109 16.025 6.91811C15.8001 6.70514 15.4324 6.70207 15.2035 6.91126L16.0175 7.68252ZM7.78486 14.4498L8.18848 14.8386L8.1919 14.8355L7.78486 14.4498ZM7.34465 15.4054H6.76378H7.34465ZM8.84763 16.7568V16.2162V16.7568ZM9.91041 16.361L10.314 16.7497L10.3169 16.747L9.91041 16.361ZM19.239 7.85664L18.8354 7.46789L18.8325 7.47051L19.239 7.85664ZM17.1135 3.24284V2.7023V3.24284ZM14.988 4.03444L14.5843 3.6457L14.5815 3.64831L14.988 4.03444ZM5.65932 12.5387L6.06294 12.9275L6.06581 12.9249L5.65932 12.5387ZM4.33868 15.4054H3.75781H4.33868ZM8.84763 19.4595V20V19.4595ZM12.036 18.272L11.6326 17.883L11.6323 17.8834L12.036 18.272ZM20.147 11.7399C20.378 11.5326 20.3845 11.1904 20.1618 10.9756C19.9389 10.7608 19.5713 10.7547 19.3404 10.962L20.147 11.7399ZM15.2035 6.91126L7.37783 14.0642L8.1919 14.8355L16.0175 7.68252L15.2035 6.91126ZM7.38125 14.0611C6.98836 14.4144 6.76378 14.8975 6.76378 15.4054H7.92551C7.92551 15.1964 8.01764 14.9922 8.18847 14.8386L7.38125 14.0611ZM6.76378 15.4054C6.76378 15.9133 6.98836 16.3964 7.38125 16.7496L8.18847 15.9722C8.01764 15.8186 7.92551 15.6143 7.92551 15.4054H6.76378ZM7.38125 16.7496C7.77347 17.1023 8.30129 17.2973 8.84763 17.2973V16.2162C8.59675 16.2162 8.35999 16.1264 8.18847 15.9722L7.38125 16.7496ZM8.84763 17.2973C9.39398 17.2973 9.9218 17.1023 10.314 16.7496L9.5068 15.9722C9.33528 16.1264 9.09852 16.2162 8.84763 16.2162V17.2973ZM10.3169 16.747L19.6455 8.24277L18.8325 7.47051L9.50392 15.9748L10.3169 16.747ZM19.6427 8.24537C19.9766 7.94509 20.2426 7.5876 20.4245 7.1928L19.3568 6.76682C19.2366 7.02784 19.0597 7.26624 18.8354 7.4679L19.6427 8.24537ZM20.4245 7.1928C20.6065 6.79796 20.7003 6.37408 20.7003 5.94554H19.5386C19.5386 6.22685 19.477 6.50586 19.3568 6.76682L20.4245 7.1928ZM20.7003 5.94554C20.7003 5.517 20.6065 5.09312 20.4245 4.69828L19.3568 5.12425C19.477 5.38522 19.5386 5.66423 19.5386 5.94554H20.7003ZM20.4245 4.69828C20.2426 4.30347 19.9766 3.94598 19.6427 3.64571L18.8354 4.42317C19.0597 4.62484 19.2366 4.86324 19.3568 5.12425L20.4245 4.69828ZM19.6427 3.64571C19.3087 3.34547 18.9134 3.10825 18.4797 2.94673L18.048 3.95041C18.3437 4.06054 18.6111 4.22148 18.8354 4.42317L19.6427 3.64571ZM18.4797 2.94673C18.046 2.78521 17.5818 2.7023 17.1135 2.7023V3.78338C17.4347 3.78338 17.7523 3.84028 18.048 3.95041L18.4797 2.94673ZM17.1135 2.7023C16.6452 2.7023 16.181 2.78521 15.7473 2.94673L16.179 3.95041C16.4747 3.84028 16.7923 3.78338 17.1135 3.78338V2.7023ZM15.7473 2.94673C15.3136 3.10825 14.9183 3.34547 14.5844 3.64571L15.3916 4.42317C15.6159 4.22148 15.8833 4.06054 16.179 3.95041L15.7473 2.94673ZM14.5815 3.64831L5.25283 12.1526L6.06581 12.9249L15.3945 4.42057L14.5815 3.64831ZM5.25571 12.15C4.29909 13.0101 3.75781 14.1808 3.75781 15.4054H4.91954C4.91954 14.4797 5.32836 13.5879 6.06293 12.9275L5.25571 12.15ZM3.75781 15.4054C3.75781 16.6301 4.29909 17.8007 5.25571 18.6608L6.06293 17.8834C5.32836 17.2228 4.91954 16.3311 4.91954 15.4054H3.75781ZM5.25571 18.6608C6.21165 19.5202 7.50405 20 8.84763 20V18.9189C7.79951 18.9189 6.79817 18.5443 6.06293 17.8834L5.25571 18.6608ZM8.84763 20C10.1912 20 11.4836 19.5202 12.4396 18.6608L11.6323 17.8834C10.8971 18.5443 9.89576 18.9189 8.84763 18.9189V20ZM12.4393 18.661L20.147 11.7399L19.3404 10.962L11.6326 17.883L12.4393 18.661Z" fill="#ADADAD"/>
</svg>
