<svg width="210" height="64" viewBox="0 0 210 64" fill="none" xmlns="http://www.w3.org/2000/svg">
<path d="M150.709 54.0516C151.206 54.0516 151.654 54.1597 152.055 54.376C152.455 54.5842 152.768 54.9006 152.992 55.3252C153.224 55.7497 153.34 56.2663 153.34 56.8751V60.7559H152.259V57.0313C152.259 56.3745 152.095 55.8738 151.766 55.5294C151.438 55.177 150.989 55.0007 150.421 55.0007C149.844 55.0007 149.383 55.181 149.039 55.5414C148.703 55.9019 148.534 56.4265 148.534 57.1154V60.7559H147.441V51.8648H148.534V55.1089C148.751 54.7725 149.047 54.5121 149.423 54.3279C149.808 54.1437 150.236 54.0516 150.709 54.0516Z" fill="white"/>
<path d="M144.398 55.0728V58.9537C144.398 59.2741 144.466 59.5024 144.602 59.6385C144.738 59.7667 144.975 59.8308 145.311 59.8308H146.116V60.7559H145.131C144.522 60.7559 144.066 60.6158 143.761 60.3354C143.457 60.0551 143.305 59.5945 143.305 58.9537V55.0728H142.452V54.1717H143.305V52.5136H144.398V54.1717H146.116V55.0728H144.398Z" fill="white"/>
<path d="M140.672 53.1024C140.464 53.1024 140.288 53.0303 140.144 52.8861C139.999 52.7419 139.927 52.5657 139.927 52.3574C139.927 52.1492 139.999 51.973 140.144 51.8288C140.288 51.6846 140.464 51.6125 140.672 51.6125C140.873 51.6125 141.041 51.6846 141.177 51.8288C141.321 51.973 141.393 52.1492 141.393 52.3574C141.393 52.5657 141.321 52.7419 141.177 52.8861C141.041 53.0303 140.873 53.1024 140.672 53.1024ZM141.201 54.1717V60.7559H140.108V54.1717H141.201Z" fill="white"/>
<path d="M139.022 54.1717L136.968 60.7559H135.838L134.252 55.5294L132.666 60.7559H131.537L129.47 54.1717H130.588L132.102 59.6986L133.736 54.1717H134.853L136.451 59.7106L137.941 54.1717H139.022Z" fill="white"/>
<path d="M123.659 55.241C123.852 54.8646 124.124 54.5722 124.476 54.3639C124.837 54.1557 125.273 54.0516 125.786 54.0516V55.181H125.498C124.272 55.181 123.659 55.8458 123.659 57.1755V60.7559H122.566V54.1717H123.659V55.241Z" fill="white"/>
<path d="M121.123 57.2115C121.123 57.4198 121.111 57.64 121.087 57.8723H115.824C115.864 58.5211 116.085 59.0298 116.485 59.3982C116.894 59.7587 117.386 59.9389 117.963 59.9389C118.436 59.9389 118.828 59.8308 119.14 59.6145C119.461 59.3902 119.685 59.0939 119.813 58.7254H120.991C120.815 59.3582 120.462 59.8748 119.933 60.2753C119.405 60.6678 118.748 60.8641 117.963 60.8641C117.338 60.8641 116.777 60.7239 116.281 60.4436C115.792 60.1632 115.408 59.7667 115.127 59.2541C114.847 58.7334 114.707 58.1327 114.707 57.4518C114.707 56.771 114.843 56.1742 115.115 55.6616C115.388 55.1489 115.768 54.7564 116.257 54.4841C116.753 54.2037 117.322 54.0636 117.963 54.0636C118.588 54.0636 119.14 54.1997 119.621 54.4721C120.102 54.7444 120.47 55.1209 120.726 55.6015C120.991 56.0741 121.123 56.6108 121.123 57.2115ZM119.993 56.9832C119.993 56.5667 119.901 56.2103 119.717 55.9139C119.533 55.6095 119.281 55.3812 118.96 55.229C118.648 55.0688 118.299 54.9887 117.915 54.9887C117.362 54.9887 116.89 55.165 116.497 55.5174C116.113 55.8698 115.892 56.3584 115.836 56.9832H119.993Z" fill="white"/>
<path d="M110.698 54.0516C111.195 54.0516 111.643 54.1597 112.044 54.376C112.444 54.5842 112.757 54.9006 112.981 55.3252C113.213 55.7497 113.329 56.2663 113.329 56.8751V60.7559H112.248V57.0313C112.248 56.3745 112.084 55.8738 111.755 55.5294C111.427 55.177 110.978 55.0007 110.41 55.0007C109.833 55.0007 109.372 55.181 109.028 55.5414C108.692 55.9019 108.523 56.4265 108.523 57.1154V60.7559H107.43V51.8648H108.523V55.1089C108.74 54.7725 109.036 54.5121 109.412 54.3279C109.797 54.1437 110.225 54.0516 110.698 54.0516Z" fill="white"/>
<path d="M104.387 55.0728V58.9537C104.387 59.2741 104.455 59.5024 104.591 59.6385C104.727 59.7667 104.964 59.8308 105.3 59.8308H106.105V60.7559H105.12C104.511 60.7559 104.055 60.6158 103.75 60.3354C103.446 60.0551 103.294 59.5945 103.294 58.9537V55.0728H102.441V54.1717H103.294V52.5136H104.387V54.1717H106.105V55.0728H104.387Z" fill="white"/>
<path d="M101.61 57.2115C101.61 57.4198 101.598 57.64 101.574 57.8723H96.3116C96.3517 58.5211 96.5719 59.0298 96.9724 59.3982C97.3809 59.7587 97.8736 59.9389 98.4503 59.9389C98.9229 59.9389 99.3154 59.8308 99.6277 59.6145C99.9481 59.3902 100.172 59.0939 100.301 58.7254H101.478C101.302 59.3582 100.949 59.8748 100.421 60.2753C99.8921 60.6678 99.2353 60.8641 98.4503 60.8641C97.8255 60.8641 97.2648 60.7239 96.7682 60.4436C96.2796 60.1632 95.8951 59.7667 95.6147 59.2541C95.3344 58.7334 95.1942 58.1327 95.1942 57.4518C95.1942 56.771 95.3304 56.1742 95.6027 55.6616C95.8751 55.1489 96.2555 54.7564 96.7441 54.4841C97.2408 54.2037 97.8095 54.0636 98.4503 54.0636C99.0751 54.0636 99.6277 54.1997 100.108 54.4721C100.589 54.7444 100.957 55.1209 101.214 55.6015C101.478 56.0741 101.61 56.6108 101.61 57.2115ZM100.481 56.9832C100.481 56.5667 100.389 56.2103 100.204 55.9139C100.02 55.6095 99.7679 55.3812 99.4475 55.229C99.1351 55.0688 98.7867 54.9887 98.4022 54.9887C97.8495 54.9887 97.3769 55.165 96.9844 55.5174C96.6 55.8698 96.3797 56.3584 96.3236 56.9832H100.481Z" fill="white"/>
<path d="M90.1986 54.0636C90.7673 54.0636 91.2639 54.1877 91.6884 54.436C92.121 54.6844 92.4414 54.9967 92.6496 55.3732V54.1717H93.755V60.9001C93.755 61.5009 93.6269 62.0335 93.3705 62.4981C93.1142 62.9707 92.7458 63.3392 92.2652 63.6035C91.7926 63.8678 91.2399 64 90.6071 64C89.742 64 89.0211 63.7957 88.4444 63.3872C87.8677 62.9787 87.5272 62.422 87.4231 61.7171H88.5045C88.6246 62.1176 88.8729 62.438 89.2494 62.6783C89.6259 62.9267 90.0784 63.0508 90.6071 63.0508C91.2078 63.0508 91.6965 62.8626 92.0729 62.4861C92.4574 62.1096 92.6496 61.581 92.6496 60.9001V59.5184C92.4334 59.9029 92.113 60.2233 91.6884 60.4796C91.2639 60.7359 90.7673 60.8641 90.1986 60.8641C89.6139 60.8641 89.0812 60.7199 88.6006 60.4315C88.128 60.1432 87.7555 59.7387 87.4832 59.218C87.2109 58.6974 87.0747 58.1046 87.0747 57.4398C87.0747 56.767 87.2109 56.1782 87.4832 55.6736C87.7555 55.1609 88.128 54.7645 88.6006 54.4841C89.0812 54.2037 89.6139 54.0636 90.1986 54.0636ZM92.6496 57.4518C92.6496 56.9552 92.5495 56.5226 92.3493 56.1542C92.149 55.7857 91.8767 55.5054 91.5323 55.3131C91.1958 55.1129 90.8234 55.0128 90.4149 55.0128C90.0063 55.0128 89.6339 55.1089 89.2975 55.3011C88.961 55.4934 88.6927 55.7737 88.4924 56.1422C88.2922 56.5106 88.1921 56.9432 88.1921 57.4398C88.1921 57.9444 88.2922 58.385 88.4924 58.7614C88.6927 59.1299 88.961 59.4143 89.2975 59.6145C89.6339 59.8068 90.0063 59.9029 90.4149 59.9029C90.8234 59.9029 91.1958 59.8068 91.5323 59.6145C91.8767 59.4143 92.149 59.1299 92.3493 58.7614C92.5495 58.385 92.6496 57.9484 92.6496 57.4518Z" fill="white"/>
<path d="M82.6694 60.8641C82.0526 60.8641 81.4919 60.7239 80.9873 60.4436C80.4907 60.1632 80.0982 59.7667 79.8098 59.2541C79.5295 58.7334 79.3893 58.1327 79.3893 57.4518C79.3893 56.779 79.5335 56.1862 79.8218 55.6736C80.1182 55.1529 80.5187 54.7564 81.0233 54.4841C81.528 54.2037 82.0927 54.0636 82.7175 54.0636C83.3422 54.0636 83.9069 54.2037 84.4116 54.4841C84.9162 54.7564 85.3127 55.1489 85.6011 55.6616C85.8974 56.1742 86.0456 56.771 86.0456 57.4518C86.0456 58.1327 85.8934 58.7334 85.589 59.2541C85.2927 59.7667 84.8882 60.1632 84.3755 60.4436C83.8629 60.7239 83.2942 60.8641 82.6694 60.8641ZM82.6694 59.9029C83.0619 59.9029 83.4303 59.8108 83.7748 59.6265C84.1192 59.4423 84.3955 59.166 84.6038 58.7975C84.8201 58.429 84.9282 57.9805 84.9282 57.4518C84.9282 56.9231 84.8241 56.4746 84.6158 56.1061C84.4076 55.7377 84.1352 55.4653 83.7988 55.2891C83.4624 55.1049 83.0979 55.0128 82.7054 55.0128C82.3049 55.0128 81.9365 55.1049 81.6001 55.2891C81.2716 55.4653 81.0073 55.7377 80.8071 56.1061C80.6068 56.4746 80.5067 56.9231 80.5067 57.4518C80.5067 57.9885 80.6028 58.441 80.795 58.8095C80.9953 59.178 81.2596 59.4543 81.588 59.6385C81.9164 59.8148 82.2769 59.9029 82.6694 59.9029Z" fill="white"/>
<path d="M76.7548 55.0728V58.9537C76.7548 59.2741 76.8229 59.5024 76.9591 59.6385C77.0952 59.7667 77.3315 59.8308 77.6679 59.8308H78.473V60.7559H77.4877C76.879 60.7559 76.4224 60.6158 76.118 60.3354C75.8136 60.0551 75.6614 59.5945 75.6614 58.9537V55.0728H74.8084V54.1717H75.6614V52.5136H76.7548V54.1717H78.473V55.0728H76.7548Z" fill="white"/>
<path d="M68.2714 60.8641C67.7668 60.8641 67.3142 60.78 66.9137 60.6118C66.5132 60.4355 66.1968 60.1952 65.9645 59.8909C65.7322 59.5785 65.6041 59.222 65.58 58.8215H66.7094C66.7415 59.1499 66.8937 59.4183 67.166 59.6265C67.4464 59.8348 67.8108 59.9389 68.2594 59.9389C68.6759 59.9389 69.0043 59.8468 69.2446 59.6626C69.4849 59.4783 69.6051 59.2461 69.6051 58.9657C69.6051 58.6773 69.4769 58.4651 69.2206 58.3289C68.9643 58.1847 68.5678 58.0446 68.0311 57.9084C67.5425 57.7802 67.142 57.6521 66.8296 57.5239C66.5252 57.3877 66.2609 57.1915 66.0366 56.9352C65.8203 56.6708 65.7122 56.3264 65.7122 55.9019C65.7122 55.5655 65.8123 55.2571 66.0126 54.9767C66.2128 54.6964 66.4972 54.4761 66.8656 54.3159C67.2341 54.1477 67.6546 54.0636 68.1272 54.0636C68.8561 54.0636 69.4449 54.2478 69.8934 54.6163C70.342 54.9847 70.5823 55.4894 70.6143 56.1302H69.521C69.4969 55.7857 69.3568 55.5094 69.1004 55.3011C68.8521 55.0929 68.5157 54.9887 68.0912 54.9887C67.6987 54.9887 67.3863 55.0728 67.154 55.241C66.9217 55.4093 66.8056 55.6295 66.8056 55.9019C66.8056 56.1181 66.8736 56.2984 67.0098 56.4425C67.154 56.5787 67.3302 56.6909 67.5385 56.779C67.7547 56.8591 68.0511 56.9512 68.4276 57.0553C68.9002 57.1835 69.2847 57.3116 69.581 57.4398C69.8774 57.5599 70.1297 57.7442 70.338 57.9925C70.5542 58.2408 70.6664 58.5652 70.6744 58.9657C70.6744 59.3262 70.5743 59.6506 70.374 59.9389C70.1738 60.2273 69.8894 60.4556 69.521 60.6238C69.1605 60.784 68.744 60.8641 68.2714 60.8641Z" fill="white"/>
<path d="M64.0771 51.8648V60.7559H62.9838V51.8648H64.0771Z" fill="white"/>
<path d="M54.4558 57.4398C54.4558 56.767 54.5919 56.1782 54.8643 55.6736C55.1366 55.1609 55.5091 54.7645 55.9817 54.4841C56.4623 54.2037 56.995 54.0636 57.5797 54.0636C58.1564 54.0636 58.657 54.1877 59.0816 54.436C59.5061 54.6844 59.8225 54.9967 60.0307 55.3732V54.1717H61.1361V60.7559H60.0307V59.5304C59.8145 59.9149 59.4901 60.2353 59.0575 60.4916C58.633 60.7399 58.1364 60.8641 57.5677 60.8641C56.9829 60.8641 56.4543 60.7199 55.9817 60.4315C55.5091 60.1432 55.1366 59.7387 54.8643 59.218C54.5919 58.6974 54.4558 58.1046 54.4558 57.4398ZM60.0307 57.4518C60.0307 56.9552 59.9306 56.5226 59.7304 56.1542C59.5301 55.7857 59.2578 55.5054 58.9133 55.3131C58.5769 55.1129 58.2045 55.0128 57.796 55.0128C57.3874 55.0128 57.015 55.1089 56.6786 55.3011C56.3421 55.4934 56.0738 55.7737 55.8735 56.1422C55.6733 56.5106 55.5732 56.9432 55.5732 57.4398C55.5732 57.9444 55.6733 58.385 55.8735 58.7614C56.0738 59.1299 56.3421 59.4143 56.6786 59.6145C57.015 59.8068 57.3874 59.9029 57.796 59.9029C58.2045 59.9029 58.5769 59.8068 58.9133 59.6145C59.2578 59.4143 59.5301 59.1299 59.7304 58.7614C59.9306 58.385 60.0307 57.9484 60.0307 57.4518Z" fill="white"/>
<path d="M50.0505 60.8641C49.4337 60.8641 48.873 60.7239 48.3684 60.4436C47.8718 60.1632 47.4793 59.7667 47.1909 59.2541C46.9106 58.7334 46.7704 58.1327 46.7704 57.4518C46.7704 56.779 46.9146 56.1862 47.2029 55.6736C47.4993 55.1529 47.8998 54.7564 48.4044 54.4841C48.9091 54.2037 49.4738 54.0636 50.0985 54.0636C50.7233 54.0636 51.288 54.2037 51.7927 54.4841C52.2973 54.7564 52.6938 55.1489 52.9822 55.6616C53.2785 56.1742 53.4267 56.771 53.4267 57.4518C53.4267 58.1327 53.2745 58.7334 52.9701 59.2541C52.6738 59.7667 52.2693 60.1632 51.7566 60.4436C51.244 60.7239 50.6753 60.8641 50.0505 60.8641ZM50.0505 59.9029C50.443 59.9029 50.8114 59.8108 51.1559 59.6265C51.5003 59.4423 51.7766 59.166 51.9849 58.7975C52.2012 58.429 52.3093 57.9805 52.3093 57.4518C52.3093 56.9231 52.2052 56.4746 51.9969 56.1061C51.7887 55.7377 51.5163 55.4653 51.1799 55.2891C50.8435 55.1049 50.479 55.0128 50.0865 55.0128C49.686 55.0128 49.3176 55.1049 48.9811 55.2891C48.6527 55.4653 48.3884 55.7377 48.1882 56.1061C47.9879 56.4746 47.8878 56.9231 47.8878 57.4518C47.8878 57.9885 47.9839 58.441 48.1761 58.8095C48.3764 59.178 48.6407 59.4543 48.9691 59.6385C49.2975 59.8148 49.658 59.9029 50.0505 59.9029Z" fill="white"/>
<path d="M41.7748 54.0636C42.3435 54.0636 42.8401 54.1877 43.2646 54.436C43.6972 54.6844 44.0176 54.9967 44.2258 55.3732V54.1717H45.3312V60.9001C45.3312 61.5009 45.2031 62.0335 44.9467 62.4981C44.6904 62.9707 44.3219 63.3392 43.8413 63.6035C43.3688 63.8678 42.8161 64 42.1833 64C41.3182 64 40.5973 63.7957 40.0206 63.3872C39.4438 62.9787 39.1034 62.422 38.9993 61.7171H40.0806C40.2008 62.1176 40.4491 62.438 40.8256 62.6783C41.202 62.9267 41.6546 63.0508 42.1833 63.0508C42.784 63.0508 43.2726 62.8626 43.6491 62.4861C44.0336 62.1096 44.2258 61.581 44.2258 60.9001V59.5184C44.0096 59.9029 43.6892 60.2233 43.2646 60.4796C42.8401 60.7359 42.3435 60.8641 41.7748 60.8641C41.19 60.8641 40.6574 60.7199 40.1768 60.4315C39.7042 60.1432 39.3317 59.7387 39.0594 59.218C38.787 58.6974 38.6509 58.1046 38.6509 57.4398C38.6509 56.767 38.787 56.1782 39.0594 55.6736C39.3317 55.1609 39.7042 54.7645 40.1768 54.4841C40.6574 54.2037 41.19 54.0636 41.7748 54.0636ZM44.2258 57.4518C44.2258 56.9552 44.1257 56.5226 43.9255 56.1542C43.7252 55.7857 43.4529 55.5054 43.1084 55.3131C42.772 55.1129 42.3995 55.0128 41.991 55.0128C41.5825 55.0128 41.2101 55.1089 40.8736 55.3011C40.5372 55.4934 40.2689 55.7737 40.0686 56.1422C39.8684 56.5106 39.7683 56.9432 39.7683 57.4398C39.7683 57.9444 39.8684 58.385 40.0686 58.7614C40.2689 59.1299 40.5372 59.4143 40.8736 59.6145C41.2101 59.8068 41.5825 59.9029 41.991 59.9029C42.3995 59.9029 42.772 59.8068 43.1084 59.6145C43.4529 59.4143 43.7252 59.1299 43.9255 58.7614C44.1257 58.385 44.2258 57.9484 44.2258 57.4518Z" fill="white"/>
<path d="M207.266 37.2185C207.458 36.842 207.73 36.5497 208.083 36.3414C208.443 36.1332 208.88 36.029 209.393 36.029V37.1584H209.104C207.879 37.1584 207.266 37.8233 207.266 39.1529V42.7334H206.173V36.1492H207.266V37.2185Z" fill="white"/>
<path d="M204.326 36.1492V42.7334H203.233V41.7602C203.025 42.0966 202.732 42.3609 202.356 42.5532C201.987 42.7374 201.579 42.8295 201.13 42.8295C200.618 42.8295 200.157 42.7254 199.749 42.5171C199.34 42.3009 199.016 41.9805 198.775 41.5559C198.543 41.1314 198.427 40.6148 198.427 40.006V36.1492H199.508V39.8618C199.508 40.5106 199.673 41.0113 200.001 41.3637C200.329 41.7081 200.778 41.8803 201.347 41.8803C201.931 41.8803 202.392 41.7001 202.728 41.3397C203.065 40.9792 203.233 40.4546 203.233 39.7657V36.1492H204.326Z" fill="white"/>
<path d="M193.673 42.8415C193.057 42.8415 192.496 42.7014 191.991 42.421C191.495 42.1407 191.102 41.7442 190.814 41.2315C190.533 40.7109 190.393 40.1101 190.393 39.4293C190.393 38.7564 190.537 38.1637 190.826 37.6511C191.122 37.1304 191.523 36.7339 192.027 36.4616C192.532 36.1812 193.097 36.041 193.721 36.041C194.346 36.041 194.911 36.1812 195.416 36.4616C195.92 36.7339 196.317 37.1264 196.605 37.639C196.901 38.1517 197.05 38.7484 197.05 39.4293C197.05 40.1101 196.897 40.7109 196.593 41.2315C196.297 41.7442 195.892 42.1407 195.38 42.421C194.867 42.7014 194.298 42.8415 193.673 42.8415ZM193.673 41.8803C194.066 41.8803 194.434 41.7882 194.779 41.604C195.123 41.4198 195.4 41.1434 195.608 40.775C195.824 40.4065 195.932 39.9579 195.932 39.4293C195.932 38.9006 195.828 38.4521 195.62 38.0836C195.412 37.7151 195.139 37.4428 194.803 37.2666C194.466 37.0823 194.102 36.9902 193.709 36.9902C193.309 36.9902 192.94 37.0823 192.604 37.2666C192.276 37.4428 192.011 37.7151 191.811 38.0836C191.611 38.4521 191.511 38.9006 191.511 39.4293C191.511 39.966 191.607 40.4185 191.799 40.787C191.999 41.1554 192.264 41.4318 192.592 41.616C192.92 41.7922 193.281 41.8803 193.673 41.8803Z" fill="white"/>
<path d="M189.703 36.1492L185.738 45.8333H184.608L185.906 42.6613L183.251 36.1492H184.464L186.531 41.4838L188.573 36.1492H189.703Z" fill="white"/>
<path d="M176.411 36.029C176.908 36.029 177.356 36.1372 177.757 36.3534C178.157 36.5617 178.47 36.8781 178.694 37.3026C178.926 37.7272 179.042 38.2438 179.042 38.8526V42.7334H177.961V39.0088C177.961 38.3519 177.797 37.8513 177.468 37.5069C177.14 37.1544 176.691 36.9782 176.123 36.9782C175.546 36.9782 175.085 37.1584 174.741 37.5189C174.405 37.8793 174.236 38.404 174.236 39.0929V42.7334H173.143V33.8423H174.236V37.0864C174.453 36.7499 174.749 36.4896 175.125 36.3054C175.51 36.1211 175.938 36.029 176.411 36.029Z" fill="white"/>
<path d="M165.436 39.4293C165.436 38.7484 165.572 38.1557 165.845 37.6511C166.117 37.1384 166.494 36.7419 166.974 36.4616C167.463 36.1812 168.02 36.041 168.644 36.041C169.453 36.041 170.118 36.2373 170.639 36.6298C171.167 37.0223 171.516 37.567 171.684 38.2638H170.507C170.395 37.8633 170.174 37.5469 169.846 37.3146C169.525 37.0823 169.125 36.9662 168.644 36.9662C168.02 36.9662 167.515 37.1825 167.13 37.615C166.746 38.0395 166.554 38.6443 166.554 39.4293C166.554 40.2223 166.746 40.835 167.13 41.2676C167.515 41.7001 168.02 41.9164 168.644 41.9164C169.125 41.9164 169.525 41.8042 169.846 41.58C170.166 41.3557 170.386 41.0353 170.507 40.6188H171.684C171.508 41.2916 171.155 41.8323 170.627 42.2408C170.098 42.6413 169.437 42.8415 168.644 42.8415C168.02 42.8415 167.463 42.7014 166.974 42.421C166.494 42.1407 166.117 41.7442 165.845 41.2315C165.572 40.7189 165.436 40.1181 165.436 39.4293Z" fill="white"/>
<path d="M157.317 39.4173C157.317 38.7444 157.453 38.1557 157.725 37.6511C157.998 37.1384 158.37 36.7419 158.843 36.4616C159.323 36.1812 159.856 36.041 160.441 36.041C161.017 36.041 161.518 36.1652 161.943 36.4135C162.367 36.6618 162.683 36.9742 162.892 37.3507V36.1492H163.997V42.7334H162.892V41.5079C162.675 41.8924 162.351 42.2128 161.919 42.4691C161.494 42.7174 160.997 42.8415 160.429 42.8415C159.844 42.8415 159.315 42.6974 158.843 42.409C158.37 42.1206 157.998 41.7161 157.725 41.1955C157.453 40.6748 157.317 40.0821 157.317 39.4173ZM162.892 39.4293C162.892 38.9327 162.792 38.5001 162.591 38.1317C162.391 37.7632 162.119 37.4828 161.774 37.2906C161.438 37.0904 161.065 36.9902 160.657 36.9902C160.248 36.9902 159.876 37.0864 159.54 37.2786C159.203 37.4708 158.935 37.7512 158.735 38.1196C158.534 38.4881 158.434 38.9206 158.434 39.4173C158.434 39.9219 158.534 40.3624 158.735 40.7389C158.935 41.1074 159.203 41.3917 159.54 41.592C159.876 41.7842 160.248 41.8803 160.657 41.8803C161.065 41.8803 161.438 41.7842 161.774 41.592C162.119 41.3917 162.391 41.1074 162.591 40.7389C162.792 40.3624 162.892 39.9259 162.892 39.4293Z" fill="white"/>
<path d="M156.282 39.189C156.282 39.3972 156.27 39.6175 156.246 39.8498H150.983C151.024 40.4986 151.244 41.0073 151.644 41.3757C152.053 41.7362 152.545 41.9164 153.122 41.9164C153.595 41.9164 153.987 41.8083 154.3 41.592C154.62 41.3677 154.844 41.0713 154.972 40.7029H156.15C155.974 41.3357 155.621 41.8523 155.093 42.2528C154.564 42.6453 153.907 42.8415 153.122 42.8415C152.497 42.8415 151.937 42.7014 151.44 42.421C150.951 42.1407 150.567 41.7442 150.287 41.2315C150.006 40.7109 149.866 40.1101 149.866 39.4293C149.866 38.7484 150.002 38.1517 150.275 37.639C150.547 37.1264 150.927 36.7339 151.416 36.4616C151.913 36.1812 152.481 36.041 153.122 36.041C153.747 36.041 154.3 36.1772 154.78 36.4496C155.261 36.7219 155.629 37.0984 155.886 37.579C156.15 38.0516 156.282 38.5882 156.282 39.189ZM155.153 38.9607C155.153 38.5442 155.061 38.1877 154.876 37.8914C154.692 37.587 154.44 37.3587 154.119 37.2065C153.807 37.0463 153.459 36.9662 153.074 36.9662C152.521 36.9662 152.049 37.1424 151.656 37.4949C151.272 37.8473 151.052 38.3359 150.995 38.9607H155.153Z" fill="white"/>
<path d="M146.886 37.2185C147.078 36.842 147.35 36.5497 147.703 36.3414C148.063 36.1332 148.5 36.029 149.012 36.029V37.1584H148.724C147.499 37.1584 146.886 37.8233 146.886 39.1529V42.7334H145.792V36.1492H146.886V37.2185Z" fill="white"/>
<path d="M138.643 42.8415C138.138 42.8415 137.685 42.7574 137.285 42.5892C136.884 42.413 136.568 42.1727 136.336 41.8683C136.103 41.5559 135.975 41.1995 135.951 40.799H137.081C137.113 41.1274 137.265 41.3957 137.537 41.604C137.818 41.8123 138.182 41.9164 138.631 41.9164C139.047 41.9164 139.375 41.8243 139.616 41.64C139.856 41.4558 139.976 41.2235 139.976 40.9432C139.976 40.6548 139.848 40.4425 139.592 40.3064C139.335 40.1622 138.939 40.022 138.402 39.8859C137.914 39.7577 137.513 39.6295 137.201 39.5014C136.896 39.3652 136.632 39.169 136.408 38.9126C136.192 38.6483 136.083 38.3039 136.083 37.8793C136.083 37.5429 136.184 37.2345 136.384 36.9542C136.584 36.6738 136.868 36.4536 137.237 36.2934C137.605 36.1251 138.026 36.041 138.498 36.041C139.227 36.041 139.816 36.2253 140.265 36.5937C140.713 36.9622 140.953 37.4668 140.986 38.1076H139.892C139.868 37.7632 139.728 37.4869 139.472 37.2786C139.223 37.0703 138.887 36.9662 138.462 36.9662C138.07 36.9662 137.757 37.0503 137.525 37.2185C137.293 37.3867 137.177 37.607 137.177 37.8793C137.177 38.0956 137.245 38.2758 137.381 38.42C137.525 38.5562 137.701 38.6683 137.91 38.7564C138.126 38.8365 138.422 38.9287 138.799 39.0328C139.271 39.1609 139.656 39.2891 139.952 39.4173C140.249 39.5374 140.501 39.7216 140.709 39.97C140.925 40.2183 141.038 40.5427 141.046 40.9432C141.046 41.3036 140.945 41.628 140.745 41.9164C140.545 42.2047 140.261 42.433 139.892 42.6012C139.532 42.7614 139.115 42.8415 138.643 42.8415Z" fill="white"/>
<path d="M133.852 34.3589H135.065L133.912 37.0864H133.143L133.852 34.3589Z" fill="white"/>
<path d="M130.641 37.0503V40.9312C130.641 41.2516 130.709 41.4798 130.845 41.616C130.981 41.7442 131.217 41.8083 131.554 41.8083H132.359V42.7334H131.373C130.765 42.7334 130.308 42.5932 130.004 42.3129C129.699 42.0325 129.547 41.572 129.547 40.9312V37.0503H128.694V36.1492H129.547V34.4911H130.641V36.1492H132.359V37.0503H130.641Z" fill="white"/>
<path d="M127.864 39.189C127.864 39.3972 127.852 39.6175 127.828 39.8498H122.565C122.605 40.4986 122.825 41.0073 123.226 41.3757C123.634 41.7362 124.127 41.9164 124.704 41.9164C125.176 41.9164 125.569 41.8083 125.881 41.592C126.202 41.3677 126.426 41.0713 126.554 40.7029H127.732C127.555 41.3357 127.203 41.8523 126.674 42.2528C126.146 42.6453 125.489 42.8415 124.704 42.8415C124.079 42.8415 123.518 42.7014 123.022 42.421C122.533 42.1407 122.149 41.7442 121.868 41.2315C121.588 40.7109 121.448 40.1101 121.448 39.4293C121.448 38.7484 121.584 38.1517 121.856 37.639C122.129 37.1264 122.509 36.7339 122.998 36.4616C123.494 36.1812 124.063 36.041 124.704 36.041C125.329 36.041 125.881 36.1772 126.362 36.4496C126.842 36.7219 127.211 37.0984 127.467 37.579C127.732 38.0516 127.864 38.5882 127.864 39.189ZM126.734 38.9607C126.734 38.5442 126.642 38.1877 126.458 37.8914C126.274 37.587 126.021 37.3587 125.701 37.2065C125.389 37.0463 125.04 36.9662 124.656 36.9662C124.103 36.9662 123.63 37.1424 123.238 37.4949C122.853 37.8473 122.633 38.3359 122.577 38.9607H126.734Z" fill="white"/>
<path d="M119.993 33.8423V42.7334H118.899V33.8423H119.993Z" fill="white"/>
<path d="M114.444 41.2195L113.098 44.4516H112.365L113.242 41.2195H114.444Z" fill="white"/>
<path d="M112.229 36.1492L110.175 42.7334H109.045L107.459 37.5069L105.873 42.7334H104.744L102.677 36.1492H103.795L105.308 41.6761L106.943 36.1492H108.06L109.658 41.6881L111.148 36.1492H112.229Z" fill="white"/>
<path d="M98.6444 42.8415C98.0277 42.8415 97.467 42.7014 96.9623 42.421C96.4657 42.1407 96.0732 41.7442 95.7849 41.2315C95.5045 40.7109 95.3643 40.1101 95.3643 39.4293C95.3643 38.7564 95.5085 38.1637 95.7969 37.6511C96.0932 37.1304 96.4938 36.7339 96.9984 36.4616C97.503 36.1812 98.0677 36.041 98.6925 36.041C99.3173 36.041 99.882 36.1812 100.387 36.4616C100.891 36.7339 101.288 37.1264 101.576 37.639C101.872 38.1517 102.021 38.7484 102.021 39.4293C102.021 40.1101 101.868 40.7109 101.564 41.2315C101.268 41.7442 100.863 42.1407 100.351 42.421C99.8379 42.7014 99.2692 42.8415 98.6444 42.8415ZM98.6444 41.8803C99.0369 41.8803 99.4054 41.7882 99.7498 41.604C100.094 41.4198 100.371 41.1434 100.579 40.775C100.795 40.4065 100.903 39.9579 100.903 39.4293C100.903 38.9006 100.799 38.4521 100.591 38.0836C100.383 37.7151 100.11 37.4428 99.7738 37.2666C99.4374 37.0823 99.073 36.9902 98.6805 36.9902C98.28 36.9902 97.9115 37.0823 97.5751 37.2666C97.2467 37.4428 96.9824 37.7151 96.7821 38.0836C96.5819 38.4521 96.4817 38.9006 96.4817 39.4293C96.4817 39.966 96.5779 40.4185 96.7701 40.787C96.9703 41.1554 97.2347 41.4318 97.5631 41.616C97.8915 41.7922 98.2519 41.8803 98.6444 41.8803Z" fill="white"/>
<path d="M91.2954 36.029C92.0964 36.029 92.7452 36.2733 93.2419 36.7619C93.7385 37.2425 93.9868 37.9394 93.9868 38.8526V42.7334H92.9054V39.0088C92.9054 38.3519 92.7412 37.8513 92.4128 37.5069C92.0844 37.1544 91.6359 36.9782 91.0671 36.9782C90.4904 36.9782 90.0298 37.1584 89.6854 37.5189C89.349 37.8793 89.1808 38.404 89.1808 39.0929V42.7334H88.0874V36.1492H89.1808V37.0863C89.397 36.7499 89.6894 36.4896 90.0579 36.3054C90.4343 36.1211 90.8469 36.029 91.2954 36.029Z" fill="white"/>
<path d="M81.8412 37.0503V40.9312C81.8412 41.2516 81.9093 41.4798 82.0455 41.616C82.1817 41.7442 82.418 41.8083 82.7544 41.8083H83.5594V42.7334H82.5742C81.9654 42.7334 81.5088 42.5932 81.2044 42.3129C80.9001 42.0325 80.7479 41.572 80.7479 40.9312V37.0503H79.8948V36.1492H80.7479V34.4911H81.8412V36.1492H83.5594V37.0503H81.8412Z" fill="white"/>
<path d="M79.0645 39.189C79.0645 39.3972 79.0524 39.6175 79.0284 39.8498H73.7658C73.8059 40.4986 74.0262 41.0073 74.4267 41.3757C74.8352 41.7362 75.3278 41.9164 75.9045 41.9164C76.3771 41.9164 76.7696 41.8083 77.082 41.592C77.4024 41.3677 77.6267 41.0713 77.7548 40.7029H78.9323C78.7561 41.3357 78.4036 41.8523 77.875 42.2528C77.3463 42.6453 76.6895 42.8415 75.9045 42.8415C75.2797 42.8415 74.719 42.7014 74.2224 42.421C73.7338 42.1407 73.3493 41.7442 73.069 41.2315C72.7886 40.7109 72.6484 40.1101 72.6484 39.4293C72.6484 38.7484 72.7846 38.1517 73.057 37.639C73.3293 37.1264 73.7098 36.7339 74.1984 36.4616C74.695 36.1812 75.2637 36.041 75.9045 36.041C76.5293 36.041 77.082 36.1772 77.5626 36.4496C78.0432 36.7219 78.4116 37.0984 78.668 37.579C78.9323 38.0516 79.0645 38.5882 79.0645 39.189ZM77.935 38.9607C77.935 38.5442 77.8429 38.1877 77.6587 37.8914C77.4745 37.587 77.2222 37.3587 76.9018 37.2065C76.5894 37.0463 76.2409 36.9662 75.8565 36.9662C75.3038 36.9662 74.8312 37.1424 74.4387 37.4949C74.0542 37.8473 73.8339 38.3359 73.7778 38.9607H77.935Z" fill="white"/>
<path d="M69.1103 42.8415C68.6057 42.8415 68.1531 42.7574 67.7526 42.5892C67.3521 42.413 67.0357 42.1727 66.8034 41.8683C66.5712 41.5559 66.443 41.1995 66.419 40.799H67.5484C67.5804 41.1274 67.7326 41.3957 68.005 41.604C68.2853 41.8123 68.6498 41.9164 69.0983 41.9164C69.5148 41.9164 69.8432 41.8243 70.0835 41.64C70.3238 41.4558 70.444 41.2235 70.444 40.9432C70.444 40.6548 70.3158 40.4425 70.0595 40.3064C69.8032 40.1622 69.4067 40.022 68.87 39.8859C68.3814 39.7577 67.9809 39.6295 67.6685 39.5014C67.3641 39.3652 67.0998 39.169 66.8755 38.9126C66.6593 38.6483 66.5511 38.3039 66.5511 37.8793C66.5511 37.5429 66.6513 37.2345 66.8515 36.9542C67.0518 36.6738 67.3361 36.4536 67.7046 36.2934C68.073 36.1251 68.4936 36.041 68.9662 36.041C69.6951 36.041 70.2838 36.2253 70.7324 36.5937C71.1809 36.9622 71.4212 37.4668 71.4533 38.1076H70.3599C70.3359 37.7632 70.1957 37.4869 69.9394 37.2786C69.6911 37.0703 69.3546 36.9662 68.9301 36.9662C68.5376 36.9662 68.2252 37.0503 67.9929 37.2185C67.7606 37.3867 67.6445 37.607 67.6445 37.8793C67.6445 38.0956 67.7126 38.2758 67.8488 38.42C67.9929 38.5562 68.1692 38.6683 68.3774 38.7564C68.5937 38.8365 68.8901 38.9287 69.2665 39.0328C69.7391 39.1609 70.1236 39.2891 70.42 39.4173C70.7163 39.5374 70.9687 39.7216 71.1769 39.97C71.3932 40.2183 71.5053 40.5427 71.5133 40.9432C71.5133 41.3036 71.4132 41.628 71.213 41.9164C71.0127 42.2047 70.7284 42.433 70.3599 42.6012C69.9994 42.7614 69.5829 42.8415 69.1103 42.8415Z" fill="white"/>
<path d="M61.7129 33.8423V42.7334H60.6195V33.8423H61.7129Z" fill="white"/>
<path d="M58.756 33.8423V42.7334H57.6627V33.8423H58.756Z" fill="white"/>
<path d="M49.1347 39.4173C49.1347 38.7444 49.2708 38.1557 49.5432 37.6511C49.8155 37.1384 50.188 36.7419 50.6606 36.4616C51.1412 36.1812 51.6738 36.041 52.2586 36.041C52.8353 36.041 53.3359 36.1652 53.7605 36.4135C54.185 36.6618 54.5014 36.9742 54.7096 37.3507V36.1492H55.815V42.7334H54.7096V41.5079C54.4934 41.8924 54.169 42.2128 53.7364 42.4691C53.3119 42.7174 52.8153 42.8415 52.2466 42.8415C51.6618 42.8415 51.1332 42.6974 50.6606 42.409C50.188 42.1206 49.8155 41.7161 49.5432 41.1955C49.2708 40.6748 49.1347 40.0821 49.1347 39.4173ZM54.7096 39.4293C54.7096 38.9327 54.6095 38.5001 54.4093 38.1317C54.209 37.7632 53.9367 37.4828 53.5922 37.2906C53.2558 37.0904 52.8834 36.9902 52.4748 36.9902C52.0663 36.9902 51.6939 37.0864 51.3574 37.2786C51.021 37.4708 50.7527 37.7512 50.5524 38.1196C50.3522 38.4881 50.2521 38.9206 50.2521 39.4173C50.2521 39.9219 50.3522 40.3624 50.5524 40.7389C50.7527 41.1074 51.021 41.3917 51.3574 41.592C51.6939 41.7842 52.0663 41.8803 52.4748 41.8803C52.8834 41.8803 53.2558 41.7842 53.5922 41.592C53.9367 41.3917 54.209 41.1074 54.4093 40.7389C54.6095 40.3624 54.7096 39.9259 54.7096 39.4293Z" fill="white"/>
<path d="M44.8967 39.189C44.8967 39.3972 44.8847 39.6175 44.8607 39.8498H39.5981C39.6382 40.4986 39.8584 41.0073 40.2589 41.3757C40.6675 41.7362 41.1601 41.9164 41.7368 41.9164C42.2094 41.9164 42.6019 41.8083 42.9143 41.592C43.2347 41.3677 43.4589 41.0713 43.5871 40.7029H44.7646C44.5884 41.3357 44.2359 41.8523 43.7073 42.2528C43.1786 42.6453 42.5218 42.8415 41.7368 42.8415C41.112 42.8415 40.5513 42.7014 40.0547 42.421C39.5661 42.1407 39.1816 41.7442 38.9013 41.2315C38.6209 40.7109 38.4807 40.1101 38.4807 39.4293C38.4807 38.7484 38.6169 38.1517 38.8892 37.639C39.1616 37.1264 39.5421 36.7339 40.0307 36.4616C40.5273 36.1812 41.096 36.041 41.7368 36.041C42.3616 36.041 42.9143 36.1772 43.3949 36.4496C43.8755 36.7219 44.2439 37.0984 44.5003 37.579C44.7646 38.0516 44.8967 38.5882 44.8967 39.189ZM43.7673 38.9607C43.7673 38.5442 43.6752 38.1877 43.491 37.8914C43.3068 37.587 43.0544 37.3587 42.734 37.2065C42.4217 37.0463 42.0732 36.9662 41.6887 36.9662C41.136 36.9662 40.6635 37.1424 40.271 37.4949C39.8865 37.8473 39.6662 38.3359 39.6101 38.9607H43.7673Z" fill="white"/>
<path d="M35.5004 37.2185C35.6926 36.842 35.965 36.5497 36.3174 36.3414C36.6779 36.1332 37.1144 36.029 37.6271 36.029V37.1584H37.3387C36.1132 37.1584 35.5004 37.8233 35.5004 39.1529V42.7334H34.407V36.1492H35.5004V37.2185Z" fill="white"/>
<path d="M25.879 39.4173C25.879 38.7444 26.0152 38.1557 26.2875 37.6511C26.5599 37.1384 26.9323 36.7419 27.4049 36.4616C27.8855 36.1812 28.4182 36.041 29.0029 36.041C29.5797 36.041 30.0803 36.1652 30.5048 36.4135C30.9293 36.6618 31.2457 36.9742 31.454 37.3507V36.1492H32.5594V42.7334H31.454V41.5079C31.2377 41.8924 30.9133 42.2128 30.4808 42.4691C30.0563 42.7174 29.5596 42.8415 28.9909 42.8415C28.4062 42.8415 27.8775 42.6974 27.4049 42.409C26.9323 42.1206 26.5599 41.7161 26.2875 41.1955C26.0152 40.6748 25.879 40.0821 25.879 39.4173ZM31.454 39.4293C31.454 38.9327 31.3539 38.5001 31.1536 38.1317C30.9534 37.7632 30.681 37.4828 30.3366 37.2906C30.0002 37.0904 29.6277 36.9902 29.2192 36.9902C28.8107 36.9902 28.4382 37.0864 28.1018 37.2786C27.7654 37.4708 27.4971 37.7512 27.2968 38.1196C27.0966 38.4881 26.9964 38.9206 26.9964 39.4173C26.9964 39.9219 27.0966 40.3624 27.2968 40.7389C27.4971 41.1074 27.7654 41.3917 28.1018 41.592C28.4382 41.7842 28.8107 41.8803 29.2192 41.8803C29.6277 41.8803 30.0002 41.7842 30.3366 41.592C30.681 41.3917 30.9534 41.1074 31.1536 40.7389C31.3539 40.3624 31.454 39.9259 31.454 39.4293Z" fill="white"/>
<path d="M21.2381 36.1492V42.7334H20.1448V41.7602C19.9365 42.0966 19.6441 42.3609 19.2677 42.5532C18.8992 42.7374 18.4907 42.8295 18.0421 42.8295C17.5295 42.8295 17.0689 42.7254 16.6604 42.5171C16.2519 42.3009 15.9275 41.9805 15.6872 41.5559C15.4549 41.1314 15.3388 40.6148 15.3388 40.006V36.1492H16.4201V39.8618C16.4201 40.5106 16.5843 41.0113 16.9127 41.3637C17.2411 41.7081 17.6897 41.8803 18.2584 41.8803C18.8431 41.8803 19.3037 41.7001 19.6401 41.3397C19.9766 40.9792 20.1448 40.4546 20.1448 39.7657V36.1492H21.2381Z" fill="white"/>
<path d="M10.5851 42.8415C9.96836 42.8415 9.40766 42.7014 8.90303 42.421C8.40641 42.1407 8.01392 41.7442 7.72556 41.2315C7.44521 40.7109 7.30503 40.1101 7.30503 39.4293C7.30503 38.7564 7.44921 38.1637 7.73757 37.6511C8.03394 37.1304 8.43444 36.7339 8.93907 36.4616C9.4437 36.1812 10.0084 36.041 10.6332 36.041C11.258 36.041 11.8227 36.1812 12.3273 36.4616C12.8319 36.7339 13.2284 37.1264 13.5168 37.639C13.8132 38.1517 13.9614 38.7484 13.9614 39.4293C13.9614 40.1101 13.8092 40.7109 13.5048 41.2315C13.2084 41.7442 12.8039 42.1407 12.2913 42.421C11.7786 42.7014 11.2099 42.8415 10.5851 42.8415ZM10.5851 41.8803C10.9776 41.8803 11.3461 41.7882 11.6905 41.604C12.0349 41.4198 12.3113 41.1434 12.5195 40.775C12.7358 40.4065 12.844 39.9579 12.844 39.4293C12.844 38.9006 12.7398 38.4521 12.5316 38.0836C12.3233 37.7151 12.051 37.4428 11.7145 37.2666C11.3781 37.0823 11.0137 36.9902 10.6212 36.9902C10.2207 36.9902 9.85222 37.0823 9.51579 37.2666C9.18738 37.4428 8.92305 37.7151 8.7228 38.0836C8.52255 38.4521 8.42243 38.9006 8.42243 39.4293C8.42243 39.966 8.51855 40.4185 8.71079 40.787C8.91104 41.1554 9.17537 41.4318 9.50378 41.616C9.83219 41.7922 10.1926 41.8803 10.5851 41.8803Z" fill="white"/>
<path d="M6.5602 34.3589L3.83279 39.5735V42.7334H2.73942V39.5735L0 34.3589H1.21352L3.2801 38.6002L5.34668 34.3589H6.5602Z" fill="white"/>
<path d="M144.415 9.05132C144.415 9.37172 144.395 9.70547 144.355 10.0526H136.605C136.659 10.7468 136.879 11.2808 137.266 11.6546C137.667 12.015 138.154 12.1952 138.728 12.1952C139.583 12.1952 140.177 11.8348 140.51 11.1139H144.155C143.968 11.8481 143.628 12.509 143.134 13.0964C142.653 13.6838 142.046 14.1443 141.311 14.4781C140.577 14.8119 139.756 14.9787 138.848 14.9787C137.754 14.9787 136.779 14.7451 135.925 14.2778C135.07 13.8106 134.403 13.1431 133.922 12.2753C133.441 11.4076 133.201 10.393 133.201 9.23154C133.201 8.07009 133.435 7.05549 133.902 6.18773C134.383 5.31998 135.05 4.65248 135.905 4.18523C136.759 3.71798 137.74 3.48436 138.848 3.48436C139.93 3.48436 140.891 3.71131 141.732 4.16521C142.573 4.61911 143.227 5.26658 143.694 6.10763C144.175 6.94869 144.415 7.92991 144.415 9.05132ZM140.911 8.15019C140.911 7.56279 140.711 7.09554 140.31 6.74844C139.91 6.40134 139.409 6.22779 138.808 6.22779C138.234 6.22779 137.747 6.39466 137.346 6.72841C136.959 7.06216 136.719 7.53609 136.625 8.15019H140.911Z" fill="white"/>
<path d="M126.941 3.52441C128.33 3.52441 129.431 3.94493 130.246 4.78598C131.073 5.62704 131.487 6.79516 131.487 8.29036V14.8185H128.083V8.75094C128.083 8.03004 127.889 7.47601 127.502 7.08886C127.128 6.68836 126.608 6.48811 125.94 6.48811C125.273 6.48811 124.745 6.68836 124.358 7.08886C123.984 7.47601 123.797 8.03004 123.797 8.75094V14.8185H120.393V8.75094C120.393 8.03004 120.2 7.47601 119.813 7.08886C119.439 6.68836 118.918 6.48811 118.251 6.48811C117.583 6.48811 117.056 6.68836 116.669 7.08886C116.295 7.47601 116.108 8.03004 116.108 8.75094V14.8185H112.684V3.64456H116.108V5.04631C116.455 4.57906 116.909 4.21193 117.47 3.94493C118.03 3.66458 118.664 3.52441 119.372 3.52441C120.213 3.52441 120.961 3.70463 121.615 4.06508C122.282 4.42553 122.803 4.93951 123.177 5.60701C123.564 4.99291 124.091 4.49228 124.759 4.10513C125.426 3.71798 126.154 3.52441 126.941 3.52441Z" fill="white"/>
<path d="M105.02 14.9787C103.925 14.9787 102.937 14.7451 102.056 14.2778C101.188 13.8106 100.501 13.1431 99.9934 12.2753C99.4995 11.4076 99.2525 10.393 99.2525 9.23154C99.2525 8.08344 99.5061 7.07551 100.013 6.20776C100.521 5.32666 101.215 4.65248 102.096 4.18523C102.977 3.71798 103.965 3.48436 105.06 3.48436C106.154 3.48436 107.142 3.71798 108.023 4.18523C108.905 4.65248 109.599 5.32666 110.106 6.20776C110.613 7.07551 110.867 8.08344 110.867 9.23154C110.867 10.3796 110.607 11.3942 110.086 12.2753C109.579 13.1431 108.878 13.8106 107.983 14.2778C107.102 14.7451 106.114 14.9787 105.02 14.9787ZM105.02 12.015C105.674 12.015 106.228 11.7747 106.682 11.2941C107.149 10.8135 107.383 10.126 107.383 9.23154C107.383 8.33709 107.156 7.64956 106.702 7.16896C106.261 6.68836 105.714 6.44806 105.06 6.44806C104.392 6.44806 103.838 6.68836 103.398 7.16896C102.957 7.63621 102.737 8.32374 102.737 9.23154C102.737 10.126 102.95 10.8135 103.378 11.2941C103.818 11.7747 104.366 12.015 105.02 12.015Z" fill="white"/>
<path d="M87.128 9.23154C87.128 8.07009 87.3616 7.05549 87.8288 6.18773C88.3094 5.31998 88.9703 4.65248 89.8113 4.18523C90.6657 3.71798 91.6403 3.48436 92.735 3.48436C94.1367 3.48436 95.3049 3.85148 96.2394 4.58573C97.1872 5.31998 97.808 6.35461 98.1017 7.68961H94.4571C94.1501 6.83521 93.556 6.40801 92.6749 6.40801C92.0474 6.40801 91.5468 6.65499 91.173 7.14894C90.7992 7.62954 90.6123 8.32374 90.6123 9.23154C90.6123 10.1393 90.7992 10.8402 91.173 11.3342C91.5468 11.8148 92.0474 12.0551 92.6749 12.0551C93.556 12.0551 94.1501 11.6279 94.4571 10.7735H98.1017C97.808 12.0818 97.1872 13.1097 96.2394 13.8573C95.2915 14.6049 94.1234 14.9787 92.735 14.9787C91.6403 14.9787 90.6657 14.7451 89.8113 14.2778C88.9703 13.8106 88.3094 13.1431 87.8288 12.2753C87.3616 11.4076 87.128 10.393 87.128 9.23154Z" fill="white"/>
<path d="M85.3272 0V14.8185H81.9029V0H85.3272Z" fill="white"/>
<path d="M80.0965 9.05132C80.0965 9.37172 80.0765 9.70547 80.0364 10.0526H72.2868C72.3402 10.7468 72.5604 11.2808 72.9476 11.6546C73.3481 12.015 73.8354 12.1952 74.4094 12.1952C75.2638 12.1952 75.8579 11.8348 76.1916 11.1139H79.8362C79.6493 11.8481 79.3089 12.509 78.8149 13.0964C78.3343 13.6838 77.7269 14.1443 76.9926 14.4781C76.2584 14.8119 75.4374 14.9787 74.5296 14.9787C73.4349 14.9787 72.4603 14.7451 71.6059 14.2778C70.7515 13.8106 70.084 13.1431 69.6034 12.2753C69.1228 11.4076 68.8825 10.393 68.8825 9.23154C68.8825 8.07009 69.1161 7.05549 69.5834 6.18773C70.064 5.31998 70.7315 4.65248 71.5859 4.18523C72.4403 3.71798 73.4215 3.48436 74.5296 3.48436C75.6109 3.48436 76.5721 3.71131 77.4132 4.16521C78.2542 4.61911 78.9084 5.26658 79.3756 6.10763C79.8562 6.94869 80.0965 7.92991 80.0965 9.05132ZM76.5921 8.15019C76.5921 7.56279 76.3919 7.09554 75.9914 6.74844C75.5909 6.40134 75.0903 6.22779 74.4895 6.22779C73.9155 6.22779 73.4282 6.39466 73.0277 6.72841C72.6405 7.06216 72.4002 7.53609 72.3068 8.15019H76.5921Z" fill="white"/>
<path d="M67.846 0.76095L64.1814 14.8185H60.0362L57.7934 5.56696L55.4705 14.8185H51.3253L47.7609 0.76095H51.4255L53.448 10.9937L55.9511 0.76095H59.7158L62.1188 10.9937L64.1614 0.76095H67.846Z" fill="white"/>
</svg>
