<svg width="41" height="44" viewBox="0 0 41 44" fill="none" xmlns="http://www.w3.org/2000/svg">
<path d="M12.2428 23.4996C12.5372 23.7107 12.9349 23.626 13.1317 23.3126C13.1697 23.2521 13.2091 23.1933 13.2492 23.1344C13.4573 22.8286 13.3941 22.4003 13.108 22.1779C12.8219 21.9556 12.4212 22.0231 12.2131 22.3289C12.1635 22.4018 12.1148 22.4748 12.0679 22.5495C11.8708 22.8634 11.9491 23.2888 12.2428 23.4996Z" fill="#54408C"/>
<path d="M40.3592 42.4507H35.2143C39.0758 38.9725 36.8008 32.1803 31.7108 32.1803H31.2566C31.572 30.9882 31.3444 30.5112 30.4807 26.3582C29.6886 22.5494 27.0181 19.3804 23.3558 18.2398C24.2278 17.6119 24.9094 16.7049 25.2894 15.64C25.4224 15.5491 25.3877 15.574 26.2057 14.3915C29.0491 10.2806 27.0984 4.81901 23.0624 3.21863V2.73875C23.0624 1.22859 21.9129 0 20.4999 0C19.0869 0 17.9374 1.22859 17.9374 2.73875V3.21863C13.9001 4.81943 11.9517 10.282 14.7941 14.3915C15.6151 15.5785 15.5773 15.5491 15.7104 15.64C16.0902 16.7043 16.7711 17.6108 17.6424 18.2386C16.2804 18.6629 15.0048 19.3881 13.907 20.3787C13.6367 20.6226 13.6026 21.0546 13.8309 21.3435C14.0591 21.6324 14.4632 21.6689 14.7336 21.4249C17.0965 19.2925 20.3659 18.5849 23.3863 19.6864C22.4585 23.4137 19.6255 26.2125 16.0307 26.8904L15.546 26.9818L16.0002 24.7973C16.077 24.4281 15.8592 24.0624 15.5139 23.9803C15.1685 23.8983 14.8262 24.1312 14.7495 24.5002C14.6006 25.2162 13.7717 29.2032 13.5797 30.1262H12.8124C12.4586 30.1262 12.1718 30.4328 12.1718 30.8109C12.1718 31.189 12.4586 31.4956 12.8124 31.4956H15.2195C17.1432 31.4956 18.9518 30.6949 20.3123 29.241C20.4373 29.1073 20.4999 28.9321 20.4999 28.7568C20.5103 28.7568 20.4689 29.0073 20.6875 29.241C23.0334 31.7482 25.4047 31.4957 28.1873 31.4957C28.5411 31.4957 28.828 31.1891 28.828 30.811C28.828 30.4329 28.5411 30.1263 28.1873 30.1263H27.42L26.5658 26.0182H29.0733C29.2018 26.4809 29.1357 26.2058 30.0556 30.6294C30.367 32.1271 29.2988 33.5497 27.8637 33.5497H22.5251C23.2363 31.9541 22.1349 30.1263 20.4997 30.1263C20.1459 30.1263 19.8591 30.4329 19.8591 30.811C19.8591 31.1891 20.1459 31.4957 20.4997 31.4957C20.7562 31.4957 20.9974 31.6026 21.179 31.7966C21.7793 32.438 21.3588 33.5497 20.4999 33.5497H13.1359C11.8979 33.5497 10.8906 32.4731 10.8906 31.1499C10.8906 30.7911 10.8704 30.9743 11.7697 26.6559C11.8597 26.2231 11.9787 25.7956 12.1224 25.3852C12.2464 25.031 12.0783 24.6365 11.7469 24.504C11.4156 24.3714 11.0465 24.551 10.9224 24.9053C10.758 25.3748 10.6221 25.8635 10.5191 26.3584C9.65032 30.5304 9.42955 30.9982 9.74441 32.1803H9.28901C4.2237 32.1803 1.91442 38.9599 5.78121 42.4507H0.640621C0.286838 42.4507 0 42.7572 0 43.1354C0 43.5135 0.286838 43.82 0.640621 43.82H40.3592C40.7129 43.82 40.9998 43.5135 40.9998 43.1354C40.9998 42.7572 40.7129 42.4507 40.3592 42.4507ZM16.6562 13.6938C16.6562 9.93311 16.6382 10.0352 16.71 9.58076C17.3433 9.53309 17.9026 9.13674 18.1905 8.52146C18.2331 8.43005 18.2992 8.35285 18.3789 8.30005C18.5569 8.18339 18.3401 8.21626 22.3465 8.21626C22.8912 8.21626 22.7229 8.80124 23.4746 9.29978C23.7229 9.46248 24.0023 9.5585 24.2897 9.58067C24.3653 10.0593 24.3436 10.0037 24.3436 13.6938C24.3436 15.959 22.6193 17.8019 20.4999 17.8019C18.3805 17.8019 16.6562 15.959 16.6562 13.6938ZM14.599 42.4507C14.0472 42.4507 13.8953 41.6296 14.4113 41.409C17.1051 40.2575 16.9315 40.3385 17.0115 40.2816C18.3694 39.3154 18.6262 39.0272 19.336 39.0272C20.1392 39.0272 20.8494 39.5744 21.1034 40.3886L21.1733 40.6131C21.2792 40.9526 21.6113 41.1477 21.9365 41.0609L30.1092 38.8771V42.4507H14.599ZM10.8906 38.8771L14.5787 39.8625L13.9355 40.1375C13.0621 40.5109 12.6283 41.5195 12.8857 42.4506H10.8906V38.8771Z" fill="#54408C"/>
</svg>
