<svg width="28" height="28" viewBox="0 0 28 28" fill="none" xmlns="http://www.w3.org/2000/svg">
<path fill-rule="evenodd" clip-rule="evenodd" d="M14.0002 8.45834C14.4834 8.45834 14.8752 8.85009 14.8752 9.33334V13.125H18.6668C19.1501 13.125 19.5418 13.5168 19.5418 14C19.5418 14.4833 19.1501 14.875 18.6668 14.875H14.8752V18.6667C14.8752 19.1499 14.4834 19.5417 14.0002 19.5417C13.5169 19.5417 13.1252 19.1499 13.1252 18.6667V14.875H9.3335C8.85025 14.875 8.4585 14.4833 8.4585 14C8.4585 13.5168 8.85025 13.125 9.3335 13.125H13.1252V9.33334C13.1252 8.85009 13.5169 8.45834 14.0002 8.45834Z" fill="white"/>
</svg>
