<svg width="13" height="12" viewBox="0 0 13 12" fill="none" xmlns="http://www.w3.org/2000/svg">
<path d="M6.11151 0C2.74142 0 0 2.69166 0 6C0 9.30835 2.74142 12 6.11151 12C9.48161 12 12.223 9.30835 12.223 6C12.223 2.69166 9.48161 0 6.11151 0ZM8.5411 6.21021L4.97606 8.46021C4.93428 8.48682 4.88603 8.50001 4.83829 8.50001C4.79651 8.50001 4.75423 8.48975 4.71644 8.46949C4.63436 8.42555 4.58363 8.34155 4.58363 8.25V3.75C4.58363 3.65845 4.63436 3.57445 4.71644 3.53051C4.79701 3.48706 4.89797 3.48973 4.97606 3.53979L8.5411 5.78979C8.61372 5.83568 8.65798 5.91504 8.65798 6C8.65798 6.08496 8.61372 6.1643 8.5411 6.21021Z" fill="white"/>
</svg>
