<svg width="20" height="20" viewBox="0 0 20 20" fill="none" xmlns="http://www.w3.org/2000/svg">
<g clip-path="url(#clip0_6_1929)">
<path d="M19.6001 11.7627L8.23731 0.399929C7.98043 0.142159 7.62674 0.000127927 7.27313 8.62261e-08C6.91918 -0.000127755 6.56527 0.141904 6.30857 0.399503L0.399929 6.30814C0.142031 6.56515 0 6.90785 0 7.27275C0 7.63765 0.142031 7.9803 0.399503 8.23688L11.7627 19.6001C12.0197 19.858 12.3624 20 12.7273 20C13.0921 20 13.4348 19.858 13.6914 19.6005L19.6 13.6919C19.8579 13.4349 20 13.0922 20 12.7273C20 12.3624 19.858 12.0197 19.6001 11.7627ZM1.04182 7.59367C0.956165 7.50844 0.909077 7.39437 0.909077 7.27275C0.909077 7.15113 0.956123 7.03705 1.04225 6.95135L6.95178 1.04182C7.03701 0.956166 7.15108 0.909077 7.2727 0.909077C7.39432 0.909077 7.5084 0.956123 7.5941 1.04225L17.5 10.9481L10.9481 17.5L1.04182 7.59367ZM18.9578 13.0486L13.0482 18.9582C12.8778 19.1295 12.5773 19.13 12.4059 18.9578L11.5909 18.1428L18.1428 11.5909L18.9578 12.4059L18.9582 12.4063C19.0438 12.4916 19.0909 12.6056 19.0909 12.7273C19.0909 12.8489 19.0439 12.963 18.9578 13.0486Z" fill="#7B6F72"/>
<path d="M15.5877 14.6786L14.6786 15.5877C14.501 15.7653 14.501 16.0529 14.6786 16.2305C14.7674 16.3192 14.8837 16.3636 15 16.3636C15.1163 16.3636 15.2326 16.3192 15.3214 16.2305L16.2305 15.3214C16.408 15.1438 16.408 14.8561 16.2305 14.6786C16.0528 14.5011 15.7652 14.5011 15.5877 14.6786Z" fill="#7B6F72"/>
<path d="M4.67848 3.76952L3.76941 4.6786C3.59184 4.85617 3.59184 5.14381 3.76941 5.32134C3.85817 5.41014 3.97447 5.45455 4.09076 5.45455C4.20705 5.45455 4.32334 5.41014 4.41215 5.32138L5.32122 4.41231C5.4988 4.23474 5.4988 3.94709 5.32122 3.76957C5.14365 3.592 4.85601 3.592 4.67848 3.76952Z" fill="#7B6F72"/>
<path d="M7.27292 2.27276C7.52397 2.27276 7.72748 2.06925 7.72748 1.8182C7.72748 1.56715 7.52397 1.36364 7.27292 1.36364C7.02187 1.36364 6.81836 1.56715 6.81836 1.8182C6.81836 2.06925 7.02187 2.27276 7.27292 2.27276Z" fill="#7B6F72"/>
<path d="M6.2244 17.2292C5.47244 16.8532 4.79642 16.3676 4.21444 15.7853C3.63204 15.2033 3.14642 14.5273 2.77048 13.7753C2.65819 13.5503 2.38474 13.4597 2.16059 13.572C1.93598 13.6843 1.845 13.9573 1.95728 14.1819C2.3772 15.0213 2.9201 15.7768 3.5717 16.428C4.22288 17.0797 4.97838 17.6225 5.81778 18.0424C5.88302 18.0748 5.95227 18.0904 6.02062 18.0904C6.18754 18.0904 6.34777 17.9985 6.42767 17.8391C6.54 17.6145 6.44902 17.3415 6.2244 17.2292Z" fill="#7B6F72"/>
<path d="M5.41228 18.8543C4.48411 18.3905 3.64871 17.7903 2.92914 17.0712C2.21003 16.3516 1.6099 15.5162 1.14601 14.588C1.03326 14.3639 0.759803 14.2724 0.536082 14.3847C0.311465 14.497 0.220485 14.77 0.332772 14.9947C0.840599 16.0103 1.498 16.9251 2.28635 17.714C3.07513 18.5023 3.99 19.1597 5.00562 19.6675C5.07086 19.6999 5.1401 19.7155 5.20846 19.7155C5.37537 19.7155 5.5356 19.6236 5.6155 19.4642C5.72787 19.2396 5.63689 18.9666 5.41228 18.8543Z" fill="#7B6F72"/>
<path d="M14.5883 1.14567C15.5165 1.60952 16.3519 2.20969 17.0715 2.92879C17.7906 3.64833 18.3907 4.48377 18.8546 5.41193C18.9345 5.57131 19.0947 5.66318 19.2617 5.66318C19.33 5.66318 19.3993 5.64763 19.4645 5.61524C19.6891 5.50296 19.7801 5.22993 19.6678 5.00532C19.16 3.9897 18.5026 3.07483 17.7142 2.28601C16.9254 1.49766 16.0106 0.840255 14.9949 0.332428C14.7703 0.220994 14.4973 0.311122 14.385 0.535738C14.2727 0.760397 14.3638 1.03338 14.5883 1.14567Z" fill="#7B6F72"/>
<path d="M13.7753 2.77079C14.5273 3.14677 15.2033 3.6324 15.7853 4.21475C16.3677 4.79668 16.8533 5.47275 17.2292 6.22471C17.3091 6.38408 17.4694 6.47596 17.6363 6.47596C17.7046 6.47596 17.7739 6.4604 17.8391 6.42802C18.0637 6.31573 18.1547 6.04271 18.0424 5.81809C17.6225 4.97869 17.0796 4.22319 16.428 3.57201C15.7768 2.92037 15.0213 2.37751 14.1819 1.9576C13.9573 1.84663 13.6844 1.93629 13.572 2.16091C13.4597 2.38548 13.5508 2.65846 13.7753 2.77079Z" fill="#7B6F72"/>
</g>
<defs>
<clipPath id="clip0_6_1929">
<rect width="20" height="20" fill="white"/>
</clipPath>
</defs>
</svg>
