<svg width="24" height="24" viewBox="0 0 24 24" fill="none" xmlns="http://www.w3.org/2000/svg">
<path fill-rule="evenodd" clip-rule="evenodd" d="M11.5417 6C12.0249 6 12.4167 6.39175 12.4167 6.875V10.6667H16.2083C16.6916 10.6667 17.0833 11.0584 17.0833 11.5417C17.0833 12.0249 16.6916 12.4167 16.2083 12.4167H12.4167V16.2083C12.4167 16.6916 12.0249 17.0833 11.5417 17.0833C11.0584 17.0833 10.6667 16.6916 10.6667 16.2083V12.4167H6.875C6.39175 12.4167 6 12.0249 6 11.5417C6 11.0584 6.39175 10.6667 6.875 10.6667H10.6667V6.875C10.6667 6.39175 11.0584 6 11.5417 6Z" fill="white"/>
</svg>
