<svg width="15" height="12" viewBox="0 0 15 12" fill="none" xmlns="http://www.w3.org/2000/svg">
<path d="M1.43158 6.31579H3.57895C3.95863 6.31579 4.32275 6.44887 4.59123 6.68576C4.8597 6.92265 5.01053 7.24394 5.01053 7.57895V10.7368C5.01053 11.0719 4.8597 11.3931 4.59123 11.63C4.32275 11.8669 3.95863 12 3.57895 12H1.43158C1.0519 12 0.687773 11.8669 0.4193 11.63C0.150827 11.3931 0 11.0719 0 10.7368V6.31579C0 2.82758 3.20459 0 7.1579 0C11.1112 0 14.3158 2.82758 14.3158 6.31579V10.7368C14.3158 11.0719 14.165 11.3931 13.8965 11.63C13.628 11.8669 13.2639 12 12.8842 12H10.7368C10.3572 12 9.99304 11.8669 9.72456 11.63C9.45609 11.3931 9.30526 11.0719 9.30526 10.7368V7.57895C9.30526 7.24394 9.45609 6.92265 9.72456 6.68576C9.99304 6.44887 10.3572 6.31579 10.7368 6.31579H12.8842C12.8842 4.97575 12.2809 3.69059 11.207 2.74304C10.1331 1.79549 8.67661 1.26316 7.1579 1.26316C5.63918 1.26316 4.18267 1.79549 3.10878 2.74304C2.03489 3.69059 1.43158 4.97575 1.43158 6.31579Z" fill="white"/>
</svg>
