<svg width="151" height="66" viewBox="0 0 151 66" fill="none" xmlns="http://www.w3.org/2000/svg">
<path opacity="0.8" d="M0.56794 12.243C5.86164 27.2692 18.8639 36.4896 39.4855 39.8412C62.7847 43.6279 73.6069 14.678 95.4267 21.7769C111.463 26.994 107.682 40.2394 120.052 49.3751C130.437 57.045 137.509 60.7409 150.776 65.4323" stroke="#C58BF2" stroke-width="1.2"/>
<path opacity="0.8" d="M0.56794 0.20008C5.86164 15.2263 18.8639 24.4468 39.4855 27.7983C62.7847 31.5851 73.6069 2.63515 95.4267 9.73402C111.463 14.9511 107.682 28.1965 120.052 37.3323C130.437 45.0022 137.509 48.698 150.776 53.3894" stroke="#C58BF2" stroke-width="1.2"/>
<path opacity="0.8" d="M0.56794 4.21437C5.86164 19.2406 18.8639 28.4611 39.4855 31.8126C62.7847 35.5994 73.6069 6.64944 95.4267 13.7483C111.463 18.9654 107.682 32.2108 120.052 41.3466C130.437 49.0165 137.509 52.7123 150.776 57.4037" stroke="#C58BF2" stroke-width="1.2"/>
<path opacity="0.8" d="M0.56794 8.22866C5.86164 23.2549 18.8639 32.4753 39.4855 35.8269C62.7847 39.6137 73.6069 10.6637 95.4267 17.7626C111.463 22.9797 107.682 36.2251 120.052 45.3608C130.437 53.0307 137.509 56.7266 150.776 61.418" stroke="#C58BF2" stroke-width="1.2"/>
</svg>
